NotoSansArmenian-SemiBold.ufo
<glyph name="dieresiscomb" format="2">
  <unicode hex="0308"/>
  <anchor x="1" y="546" name="_top"/>
  <outline>
    <contour>
      <point x="-167" y="686" type="curve" smooth="yes"/>
      <point x="-167" y="642"/>
      <point x="-137" y="621"/>
      <point x="-99" y="621" type="curve" smooth="yes"/>
      <point x="-62" y="621"/>
      <point x="-30" y="642"/>
      <point x="-30" y="686" type="curve" smooth="yes"/>
      <point x="-30" y="732"/>
      <point x="-62" y="752"/>
      <point x="-99" y="752" type="curve" smooth="yes"/>
      <point x="-137" y="752"/>
      <point x="-167" y="732"/>
    </contour>
    <contour>
      <point x="30" y="686" type="curve" smooth="yes"/>
      <point x="30" y="642"/>
      <point x="60" y="621"/>
      <point x="99" y="621" type="curve" smooth="yes"/>
      <point x="136" y="621"/>
      <point x="168" y="642"/>
      <point x="168" y="686" type="curve" smooth="yes"/>
      <point x="168" y="732"/>
      <point x="136" y="752"/>
      <point x="99" y="752" type="curve" smooth="yes"/>
      <point x="60" y="752"/>
      <point x="30" y="732"/>
    </contour>
  </outline>
</glyph>
<glyph name="uni0531" format="2">
  <advance width="851"/>
  <unicode hex="0531"/>
  <note>
uni0531
</note>
  <anchor x="368" y="714" name="top"/>
  <outline>
    <contour>
      <point x="364" y="-10" type="curve" smooth="yes"/>
      <point x="553" y="-10"/>
      <point x="649" y="102"/>
      <point x="649" y="252" type="curve" smooth="yes"/>
      <point x="649" y="714" type="line"/>
      <point x="508" y="714" type="line"/>
      <point x="508" y="275" type="line" smooth="yes"/>
      <point x="508" y="160"/>
      <point x="464" y="108"/>
      <point x="368" y="108" type="curve" smooth="yes"/>
      <point x="275" y="108"/>
      <point x="227" y="153"/>
      <point x="227" y="275" type="curve" smooth="yes"/>
      <point x="227" y="714" type="line"/>
      <point x="86" y="714" type="line"/>
      <point x="86" y="254" type="line" smooth="yes"/>
      <point x="86" y="94"/>
      <point x="184" y="-10"/>
    </contour>
    <contour>
      <point x="639" y="230" type="curve"/>
      <point x="615" y="125" type="line"/>
      <point x="622" y="127"/>
      <point x="637" y="128"/>
      <point x="650" y="128" type="curve" smooth="yes"/>
      <point x="693" y="128"/>
      <point x="713" y="108"/>
      <point x="713" y="46" type="curve" smooth="yes"/>
      <point x="713" y="0" type="line"/>
      <point x="835" y="0" type="line"/>
      <point x="835" y="54" type="line" smooth="yes"/>
      <point x="835" y="181"/>
      <point x="778" y="233"/>
      <point x="672" y="233" type="curve" smooth="yes"/>
      <point x="662" y="233"/>
      <point x="650" y="232"/>
    </contour>
  </outline>
</glyph>
<glyph name="uni0533" format="2">
  <advance width="773"/>
  <unicode hex="0533"/>
  <note>
uni0533
</note>
  <outline>
    <contour>
      <point x="607" y="0" type="line"/>
      <point x="607" y="427" type="line" smooth="yes"/>
      <point x="607" y="630"/>
      <point x="515" y="724"/>
      <point x="333" y="724" type="curve" smooth="yes"/>
      <point x="164" y="724"/>
      <point x="59" y="630"/>
      <point x="59" y="480" type="curve" smooth="yes"/>
      <point x="59" y="324"/>
      <point x="149" y="235"/>
      <point x="330" y="235" type="curve" smooth="yes"/>
      <point x="748" y="235" type="line"/>
      <point x="748" y="353" type="line"/>
      <point x="347" y="353" type="line" smooth="yes"/>
      <point x="240" y="353"/>
      <point x="205" y="396"/>
      <point x="205" y="480" type="curve" smooth="yes"/>
      <point x="205" y="564"/>
      <point x="250" y="606"/>
      <point x="333" y="606" type="curve" smooth="yes"/>
      <point x="425" y="606"/>
      <point x="466" y="547"/>
      <point x="466" y="417" type="curve" smooth="yes"/>
      <point x="466" y="0" type="line"/>
    </contour>
  </outline>
</glyph>
<glyph name="uni0534" format="2">
  <advance width="780"/>
  <unicode hex="0534"/>
  <note>
uni0534
</note>
  <outline>
    <contour>
      <point x="609" y="0" type="line"/>
      <point x="609" y="460" type="line" smooth="yes"/>
      <point x="609" y="621"/>
      <point x="512" y="724"/>
      <point x="332" y="724" type="curve" smooth="yes"/>
      <point x="143" y="724"/>
      <point x="50" y="611"/>
      <point x="50" y="433" type="curve"/>
      <point x="191" y="433" type="line"/>
      <point x="191" y="554"/>
      <point x="233" y="606"/>
      <point x="329" y="606" type="curve" smooth="yes"/>
      <point x="421" y="606"/>
      <point x="468" y="561"/>
      <point x="468" y="440" type="curve" smooth="yes"/>
      <point x="468" y="0" type="line"/>
    </contour>
    <contour>
      <point x="593" y="351" type="line"/>
      <point x="593" y="233" type="line"/>
      <point x="753" y="233" type="line"/>
      <point x="753" y="351" type="line"/>
    </contour>
  </outline>
</glyph>
<glyph name="uni0535" format="2">
  <advance width="717"/>
  <unicode hex="0535"/>
  <note>
uni0535
</note>
  <outline>
    <contour>
      <point x="86" y="714" type="line"/>
      <point x="86" y="252" type="line" smooth="yes"/>
      <point x="86" y="102"/>
      <point x="180" y="-10"/>
      <point x="369" y="-10" type="curve" smooth="yes"/>
      <point x="558" y="-10"/>
      <point x="647" y="91"/>
      <point x="647" y="282" type="curve"/>
      <point x="506" y="282" type="line"/>
      <point x="506" y="158"/>
      <point x="465" y="108"/>
      <point x="366" y="108" type="curve" smooth="yes"/>
      <point x="270" y="108"/>
      <point x="227" y="160"/>
      <point x="227" y="275" type="curve" smooth="yes"/>
      <point x="227" y="714" type="line"/>
    </contour>
    <contour>
      <point x="213" y="462" type="line"/>
      <point x="651" y="462" type="line"/>
      <point x="651" y="580" type="line"/>
      <point x="213" y="580" type="line"/>
    </contour>
  </outline>
</glyph>
<glyph name="uni0536" format="2">
  <advance width="693"/>
  <unicode hex="0536"/>
  <note>
uni0536
</note>
  <outline>
    <contour>
      <point x="308" y="289" type="curve" smooth="yes"/>
      <point x="467" y="289"/>
      <point x="592" y="378"/>
      <point x="592" y="491" type="curve" smooth="yes"/>
      <point x="592" y="638"/>
      <point x="489" y="729"/>
      <point x="329" y="729" type="curve" smooth="yes"/>
      <point x="170" y="729"/>
      <point x="63" y="639"/>
      <point x="63" y="509" type="curve" smooth="yes"/>
      <point x="63" y="379"/>
      <point x="170" y="289"/>
    </contour>
    <contour>
      <point x="539" y="0" type="line"/>
      <point x="660" y="0" type="line"/>
      <point x="660" y="66" type="line" smooth="yes"/>
      <point x="660" y="158"/>
      <point x="616" y="189"/>
      <point x="531" y="189" type="curve" smooth="yes"/>
      <point x="186" y="189" type="line"/>
      <point x="186" y="244" type="line"/>
      <point x="68" y="244" type="line"/>
      <point x="68" y="0" type="line"/>
      <point x="186" y="0" type="line"/>
      <point x="186" y="71" type="line"/>
      <point x="477" y="71" type="line" smooth="yes"/>
      <point x="524" y="71"/>
      <point x="539" y="63"/>
      <point x="539" y="27" type="curve" smooth="yes"/>
    </contour>
    <contour>
      <point x="195" y="90" type="line"/>
      <point x="400" y="90"/>
      <point x="590" y="261"/>
      <point x="592" y="491" type="curve"/>
      <point x="461" y="491" type="line"/>
      <point x="461" y="316"/>
      <point x="343" y="189"/>
      <point x="195" y="189" type="curve"/>
    </contour>
    <contour>
      <point x="328" y="401" type="curve" smooth="yes"/>
      <point x="245" y="401"/>
      <point x="204" y="442"/>
      <point x="204" y="509" type="curve" smooth="yes"/>
      <point x="204" y="579"/>
      <point x="245" y="617"/>
      <point x="328" y="617" type="curve" smooth="yes"/>
      <point x="412" y="617"/>
      <point x="451" y="578"/>
      <point x="451" y="509" type="curve" smooth="yes"/>
      <point x="451" y="442"/>
      <point x="412" y="401"/>
    </contour>
  </outline>
</glyph>
<glyph name="uni0537" format="2">
  <advance width="632"/>
  <unicode hex="0537"/>
  <note>
uni0537
</note>
  <outline>
    <contour>
      <point x="204" y="503" type="line"/>
      <point x="204" y="385" type="line"/>
      <point x="566" y="385" type="line"/>
      <point x="566" y="503" type="line"/>
    </contour>
    <contour>
      <point x="359" y="0" type="line" smooth="yes"/>
      <point x="407" y="0"/>
      <point x="427" y="-23"/>
      <point x="427" y="-72" type="curve" smooth="yes"/>
      <point x="427" y="-146" type="line"/>
      <point x="568" y="-146" type="line"/>
      <point x="568" y="-58" type="line" smooth="yes"/>
      <point x="568" y="55"/>
      <point x="500" y="118"/>
      <point x="377" y="118" type="curve" smooth="yes"/>
      <point x="232" y="118" type="line"/>
      <point x="232" y="714" type="line"/>
      <point x="91" y="714" type="line"/>
      <point x="91" y="0" type="line"/>
    </contour>
  </outline>
</glyph>
<glyph name="uni0538" format="2">
  <advance width="717"/>
  <unicode hex="0538"/>
  <note>
uni0538
</note>
  <outline>
    <contour>
      <point x="86" y="0" type="line"/>
      <point x="227" y="0" type="line"/>
      <point x="227" y="439" type="line" smooth="yes"/>
      <point x="227" y="554"/>
      <point x="270" y="606"/>
      <point x="366" y="606" type="curve" smooth="yes"/>
      <point x="465" y="606"/>
      <point x="506" y="556"/>
      <point x="506" y="432" type="curve"/>
      <point x="647" y="432" type="line"/>
      <point x="647" y="623"/>
      <point x="558" y="724"/>
      <point x="369" y="724" type="curve" smooth="yes"/>
      <point x="180" y="724"/>
      <point x="86" y="612"/>
      <point x="86" y="462" type="curve" smooth="yes"/>
    </contour>
    <contour>
      <point x="213" y="118" type="line"/>
      <point x="213" y="0" type="line"/>
      <point x="651" y="0" type="line"/>
      <point x="651" y="118" type="line"/>
    </contour>
  </outline>
</glyph>
<glyph name="uni0539" format="2">
  <advance width="924"/>
  <unicode hex="0539"/>
  <note>
uni0539
</note>
  <outline>
    <contour>
      <point x="86" y="0" type="line"/>
      <point x="227" y="0" type="line"/>
      <point x="227" y="411" type="line" smooth="yes"/>
      <point x="227" y="536"/>
      <point x="298" y="606"/>
      <point x="429" y="606" type="curve" smooth="yes"/>
      <point x="575" y="606"/>
      <point x="635" y="555"/>
      <point x="635" y="432" type="curve"/>
      <point x="775" y="432" type="line"/>
      <point x="775" y="622"/>
      <point x="656" y="724"/>
      <point x="429" y="724" type="curve" smooth="yes"/>
      <point x="206" y="724"/>
      <point x="86" y="593"/>
      <point x="86" y="411" type="curve" smooth="yes"/>
    </contour>
    <contour>
      <point x="903" y="499" type="line"/>
      <point x="570" y="499" type="line" smooth="yes"/>
      <point x="421" y="499"/>
      <point x="343" y="433"/>
      <point x="343" y="318" type="curve" smooth="yes"/>
      <point x="343" y="208"/>
      <point x="425" y="130"/>
      <point x="556" y="130" type="curve" smooth="yes"/>
      <point x="685" y="130"/>
      <point x="775" y="219"/>
      <point x="775" y="381" type="curve"/>
      <point x="903" y="381" type="line"/>
    </contour>
    <contour>
      <point x="635" y="381" type="line"/>
      <point x="635" y="279"/>
      <point x="604" y="248"/>
      <point x="557" y="248" type="curve" smooth="yes"/>
      <point x="505" y="248"/>
      <point x="489" y="279"/>
      <point x="489" y="319" type="curve" smooth="yes"/>
      <point x="489" y="360"/>
      <point x="523" y="381"/>
      <point x="571" y="381" type="curve" smooth="yes"/>
    </contour>
  </outline>
</glyph>
<glyph name="uni053A" format="2">
  <advance width="772"/>
  <unicode hex="053A"/>
  <note>
uni053A
</note>
  <outline>
    <contour>
      <point x="610" y="714" type="line"/>
      <point x="469" y="714" type="line"/>
      <point x="469" y="297" type="line" smooth="yes"/>
      <point x="469" y="167"/>
      <point x="427" y="108"/>
      <point x="334" y="108" type="curve" smooth="yes"/>
      <point x="250" y="108"/>
      <point x="205" y="153"/>
      <point x="205" y="239" type="curve"/>
      <point x="59" y="239" type="line"/>
      <point x="59" y="87"/>
      <point x="164" y="-10"/>
      <point x="335" y="-10" type="curve" smooth="yes"/>
      <point x="517" y="-10"/>
      <point x="610" y="92"/>
      <point x="610" y="295" type="curve" smooth="yes"/>
    </contour>
    <contour>
      <point x="330" y="500" type="line" smooth="yes"/>
      <point x="152" y="500"/>
      <point x="59" y="368"/>
      <point x="59" y="239" type="curve"/>
      <point x="205" y="239" type="line"/>
      <point x="205" y="334"/>
      <point x="250" y="382"/>
      <point x="347" y="382" type="curve" smooth="yes"/>
      <point x="748" y="382" type="line"/>
      <point x="748" y="500" type="line"/>
    </contour>
  </outline>
</glyph>
<glyph name="uni053B" format="2">
  <advance width="727"/>
  <unicode hex="053B"/>
  <note>
uni053B
</note>
  <outline>
    <contour>
      <point x="91" y="714" type="line"/>
      <point x="91" y="0" type="line"/>
      <point x="232" y="0" type="line"/>
      <point x="232" y="403" type="line"/>
      <point x="225" y="403" type="line"/>
      <point x="230" y="440"/>
      <point x="232" y="476"/>
      <point x="232" y="513" type="curve" smooth="yes"/>
      <point x="232" y="714" type="line"/>
    </contour>
    <contour>
      <point x="224" y="206" type="line"/>
      <point x="232" y="206" type="line"/>
      <point x="232" y="232" type="line" smooth="yes"/>
      <point x="232" y="341"/>
      <point x="304" y="396"/>
      <point x="402" y="396" type="curve" smooth="yes"/>
      <point x="490" y="396"/>
      <point x="536" y="347"/>
      <point x="536" y="252" type="curve" smooth="yes"/>
      <point x="536" y="203" type="line"/>
      <point x="677" y="203" type="line"/>
      <point x="677" y="262" type="line" smooth="yes"/>
      <point x="677" y="414"/>
      <point x="585" y="514"/>
      <point x="437" y="514" type="curve" smooth="yes"/>
      <point x="339" y="514"/>
      <point x="262" y="473"/>
      <point x="224" y="387" type="curve"/>
    </contour>
  </outline>
</glyph>
<glyph name="uni053C" format="2">
  <advance width="446"/>
  <unicode hex="053C"/>
  <note>
uni053C
</note>
  <outline>
    <contour>
      <point x="91" y="0" type="line"/>
      <point x="422" y="0" type="line"/>
      <point x="422" y="118" type="line"/>
      <point x="232" y="118" type="line"/>
      <point x="232" y="714" type="line"/>
      <point x="91" y="714" type="line"/>
    </contour>
  </outline>
</glyph>
<glyph name="uni053D" format="2">
  <advance width="910"/>
  <unicode hex="053D"/>
  <note>
uni053D
</note>
  <outline>
    <contour>
      <point x="91" y="0" type="line"/>
      <point x="232" y="0" type="line"/>
      <point x="232" y="714" type="line"/>
      <point x="91" y="714" type="line"/>
    </contour>
    <contour>
      <point x="396" y="561" type="line"/>
      <point x="396" y="378" type="line" smooth="yes"/>
      <point x="396" y="225"/>
      <point x="475" y="146"/>
      <point x="630" y="146" type="curve" smooth="yes"/>
      <point x="781" y="146"/>
      <point x="862" y="231"/>
      <point x="862" y="387" type="curve" smooth="yes"/>
      <point x="862" y="561" type="line"/>
      <point x="721" y="561" type="line"/>
      <point x="721" y="394" type="line" smooth="yes"/>
      <point x="721" y="301"/>
      <point x="693" y="264"/>
      <point x="630" y="264" type="curve" smooth="yes"/>
      <point x="566" y="264"/>
      <point x="537" y="303"/>
      <point x="537" y="394" type="curve" smooth="yes"/>
      <point x="537" y="561" type="line"/>
    </contour>
    <contour>
      <point x="150" y="561" type="line"/>
      <point x="150" y="443" type="line"/>
      <point x="484" y="443" type="line"/>
      <point x="484" y="561" type="line"/>
    </contour>
  </outline>
</glyph>
<glyph name="uni053E" format="2">
  <advance width="736"/>
  <unicode hex="053E"/>
  <note>
uni053E
</note>
  <outline>
    <contour>
      <point x="62" y="262" type="curve" smooth="yes"/>
      <point x="62" y="101"/>
      <point x="182" y="-10"/>
      <point x="365" y="-10" type="curve" smooth="yes"/>
      <point x="547" y="-10"/>
      <point x="677" y="100"/>
      <point x="677" y="262" type="curve" smooth="yes"/>
      <point x="677" y="411"/>
      <point x="608" y="514"/>
      <point x="346" y="604" type="curve" smooth="yes"/>
      <point x="201" y="654"/>
      <point x="189" y="669"/>
      <point x="189" y="714" type="curve"/>
      <point x="48" y="714" type="line"/>
      <point x="48" y="609"/>
      <point x="88" y="570"/>
      <point x="298" y="498" type="curve" smooth="yes"/>
      <point x="464" y="441"/>
      <point x="535" y="367"/>
      <point x="535" y="261" type="curve" smooth="yes"/>
      <point x="535" y="163"/>
      <point x="469" y="108"/>
      <point x="365" y="108" type="curve" smooth="yes"/>
      <point x="265" y="108"/>
      <point x="204" y="168"/>
      <point x="204" y="264" type="curve" smooth="yes"/>
      <point x="204" y="460"/>
      <point x="449" y="606"/>
      <point x="677" y="606" type="curve"/>
      <point x="677" y="724" type="line"/>
      <point x="389" y="724"/>
      <point x="62" y="512"/>
    </contour>
  </outline>
</glyph>
<glyph name="uni053F" format="2">
  <advance width="741"/>
  <unicode hex="053F"/>
  <note>
uni053F
</note>
  <outline>
    <contour>
      <point x="654" y="0" type="line"/>
      <point x="654" y="618" type="line"/>
      <point x="513" y="618" type="line"/>
      <point x="513" y="300" type="line"/>
      <point x="520" y="300" type="line"/>
      <point x="515" y="263"/>
      <point x="513" y="213"/>
      <point x="513" y="189" type="curve" smooth="yes"/>
      <point x="513" y="0" type="line"/>
    </contour>
    <contour>
      <point x="560" y="599" type="line"/>
      <point x="513" y="599" type="line"/>
      <point x="513" y="542" type="line" smooth="yes"/>
      <point x="513" y="402"/>
      <point x="472" y="320"/>
      <point x="349" y="320" type="curve" smooth="yes"/>
      <point x="258" y="320"/>
      <point x="217" y="372"/>
      <point x="217" y="476" type="curve" smooth="yes"/>
      <point x="217" y="714" type="line"/>
      <point x="76" y="714" type="line"/>
      <point x="76" y="442" type="line" smooth="yes"/>
      <point x="76" y="277"/>
      <point x="168" y="202"/>
      <point x="306" y="202" type="curve" smooth="yes"/>
      <point x="458" y="202"/>
      <point x="560" y="303"/>
      <point x="560" y="451" type="curve" smooth="yes"/>
    </contour>
  </outline>
</glyph>
<glyph name="uni0540" format="2">
  <advance width="633"/>
  <unicode hex="0540"/>
  <note>
uni0540
</note>
  <outline>
    <contour>
      <point x="530" y="555" type="curve"/>
      <point x="609" y="653" type="line"/>
      <point x="552" y="702"/>
      <point x="488" y="724"/>
      <point x="418" y="724" type="curve" smooth="yes"/>
      <point x="263" y="724"/>
      <point x="189" y="652"/>
      <point x="146" y="498" type="curve" smooth="yes"/>
      <point x="37" y="104" type="line"/>
      <point x="172" y="69" type="line"/>
      <point x="284" y="466" type="line" smooth="yes"/>
      <point x="314" y="574"/>
      <point x="338" y="606"/>
      <point x="418" y="606" type="curve" smooth="yes"/>
      <point x="461" y="606"/>
      <point x="499" y="586"/>
    </contour>
    <contour>
      <point x="37" y="104" type="line"/>
      <point x="340" y="25" type="line" smooth="yes"/>
      <point x="393" y="11"/>
      <point x="422" y="-18"/>
      <point x="422" y="-68" type="curve" smooth="yes"/>
      <point x="422" y="-120" type="line"/>
      <point x="563" y="-120" type="line"/>
      <point x="563" y="-48" type="line" smooth="yes"/>
      <point x="563" y="45"/>
      <point x="517" y="102"/>
      <point x="372" y="140" type="curve" smooth="yes"/>
      <point x="73" y="218" type="line"/>
    </contour>
  </outline>
</glyph>
<glyph name="uni0541" format="2">
  <advance width="669"/>
  <unicode hex="0541"/>
  <note>
uni0541
</note>
  <outline>
    <contour>
      <point x="311" y="724" type="curve" smooth="yes"/>
      <point x="160" y="724"/>
      <point x="53" y="635"/>
      <point x="53" y="510" type="curve" smooth="yes"/>
      <point x="53" y="380"/>
      <point x="153" y="304"/>
      <point x="285" y="304" type="curve" smooth="yes"/>
      <point x="363" y="304"/>
      <point x="415" y="315"/>
      <point x="471" y="335" type="curve"/>
      <point x="471" y="434" type="line"/>
      <point x="434" y="417"/>
      <point x="365" y="406"/>
      <point x="314" y="406" type="curve" smooth="yes"/>
      <point x="235" y="406"/>
      <point x="194" y="442"/>
      <point x="194" y="510" type="curve" smooth="yes"/>
      <point x="194" y="575"/>
      <point x="235" y="612"/>
      <point x="314" y="612" type="curve" smooth="yes"/>
      <point x="407" y="612"/>
      <point x="455" y="551"/>
      <point x="455" y="450" type="curve" smooth="yes"/>
      <point x="455" y="267"/>
      <point x="378" y="90"/>
      <point x="236" y="90" type="curve"/>
      <point x="236" y="-10" type="line"/>
      <point x="453" y="-10"/>
      <point x="596" y="198"/>
      <point x="596" y="426" type="curve" smooth="yes"/>
      <point x="596" y="620"/>
      <point x="489" y="724"/>
    </contour>
    <contour>
      <point x="636" y="-19" type="curve"/>
      <point x="636" y="111" type="line"/>
      <point x="489" y="214"/>
      <point x="376" y="261"/>
      <point x="238" y="261" type="curve" smooth="yes"/>
      <point x="122" y="261"/>
      <point x="49" y="213"/>
      <point x="49" y="124" type="curve" smooth="yes"/>
      <point x="49" y="36"/>
      <point x="104" y="-10"/>
      <point x="236" y="-10" type="curve"/>
      <point x="236" y="90" type="line"/>
      <point x="200" y="90"/>
      <point x="180" y="102"/>
      <point x="180" y="124" type="curve" smooth="yes"/>
      <point x="180" y="150"/>
      <point x="199" y="161"/>
      <point x="240" y="161" type="curve" smooth="yes"/>
      <point x="329" y="161"/>
      <point x="490" y="86"/>
    </contour>
  </outline>
</glyph>
<glyph name="uni0542" format="2">
  <advance width="780"/>
  <unicode hex="0542"/>
  <note>
uni0542
</note>
  <outline>
    <contour>
      <point x="589" y="0" type="line"/>
      <point x="589" y="460" type="line" smooth="yes"/>
      <point x="589" y="621"/>
      <point x="492" y="724"/>
      <point x="322" y="724" type="curve" smooth="yes"/>
      <point x="142" y="724"/>
      <point x="50" y="611"/>
      <point x="50" y="433" type="curve"/>
      <point x="191" y="433" type="line"/>
      <point x="191" y="554"/>
      <point x="232" y="606"/>
      <point x="319" y="606" type="curve" smooth="yes"/>
      <point x="401" y="606"/>
      <point x="448" y="561"/>
      <point x="448" y="440" type="curve" smooth="yes"/>
      <point x="448" y="0" type="line"/>
    </contour>
    <contour>
      <point x="573" y="118" type="line"/>
      <point x="573" y="0" type="line"/>
      <point x="753" y="0" type="line"/>
      <point x="753" y="118" type="line"/>
    </contour>
  </outline>
</glyph>
<glyph name="uni0543" format="2">
  <advance width="722"/>
  <unicode hex="0543"/>
  <note>
uni0543
</note>
  <outline>
    <contour>
      <point x="662" y="606" type="curve"/>
      <point x="662" y="724" type="line"/>
      <point x="284" y="717"/>
      <point x="50" y="426"/>
      <point x="50" y="175" type="curve" smooth="yes"/>
      <point x="50" y="83"/>
      <point x="92" y="0"/>
      <point x="252" y="0" type="curve" smooth="yes"/>
      <point x="654" y="0" type="line"/>
      <point x="654" y="118" type="line" smooth="yes"/>
      <point x="654" y="418"/>
      <point x="591" y="573"/>
      <point x="335" y="619" type="curve" smooth="yes"/>
      <point x="55" y="669" type="line"/>
      <point x="55" y="551" type="line"/>
      <point x="287" y="508" type="line" smooth="yes"/>
      <point x="458" y="476"/>
      <point x="511" y="384"/>
      <point x="511" y="172" type="curve" smooth="yes"/>
      <point x="511" y="118" type="line"/>
      <point x="279" y="118" type="line" smooth="yes"/>
      <point x="216" y="118"/>
      <point x="192" y="142"/>
      <point x="192" y="201" type="curve" smooth="yes"/>
      <point x="192" y="394"/>
      <point x="379" y="600"/>
    </contour>
  </outline>
</glyph>
<glyph name="uni0544" format="2">
  <advance width="813"/>
  <unicode hex="0544"/>
  <note>
uni0544
</note>
  <outline>
    <contour>
      <point x="370" y="-10" type="curve" smooth="yes"/>
      <point x="550" y="-10"/>
      <point x="649" y="93"/>
      <point x="649" y="254" type="curve" smooth="yes"/>
      <point x="649" y="596" type="line"/>
      <point x="793" y="596" type="line"/>
      <point x="793" y="714" type="line"/>
      <point x="508" y="714" type="line"/>
      <point x="508" y="274" type="line" smooth="yes"/>
      <point x="508" y="153"/>
      <point x="459" y="108"/>
      <point x="366" y="108" type="curve" smooth="yes"/>
      <point x="270" y="108"/>
      <point x="227" y="160"/>
      <point x="227" y="276" type="curve" smooth="yes"/>
      <point x="227" y="714" type="line"/>
      <point x="86" y="714" type="line"/>
      <point x="86" y="252" type="line" smooth="yes"/>
      <point x="86" y="102"/>
      <point x="180" y="-10"/>
    </contour>
  </outline>
</glyph>
<glyph name="uni0545" format="2">
  <advance width="635"/>
  <unicode hex="0545"/>
  <note>
uni0545
</note>
  <outline>
    <contour>
      <point x="563" y="547" type="curve" smooth="yes"/>
      <point x="563" y="651"/>
      <point x="480" y="724"/>
      <point x="333" y="724" type="curve" smooth="yes"/>
      <point x="218" y="724"/>
      <point x="126" y="694"/>
      <point x="63" y="646" type="curve"/>
      <point x="125" y="547" type="line"/>
      <point x="169" y="584"/>
      <point x="231" y="606"/>
      <point x="303" y="606" type="curve" smooth="yes"/>
      <point x="389" y="606"/>
      <point x="422" y="574"/>
      <point x="422" y="525" type="curve" smooth="yes"/>
      <point x="422" y="466"/>
      <point x="365" y="430"/>
      <point x="191" y="430" type="curve" smooth="yes"/>
      <point x="42" y="430" type="line"/>
      <point x="42" y="312" type="line"/>
      <point x="216" y="312" type="line" smooth="yes"/>
      <point x="392" y="312"/>
      <point x="439" y="281"/>
      <point x="439" y="212" type="curve" smooth="yes"/>
      <point x="439" y="148"/>
      <point x="395" y="108"/>
      <point x="295" y="108" type="curve" smooth="yes"/>
      <point x="222" y="108"/>
      <point x="122" y="125"/>
      <point x="68" y="155" type="curve"/>
      <point x="68" y="29" type="line"/>
      <point x="123" y="4"/>
      <point x="216" y="-10"/>
      <point x="313" y="-10" type="curve" smooth="yes"/>
      <point x="491" y="-10"/>
      <point x="585" y="78"/>
      <point x="585" y="202" type="curve" smooth="yes"/>
      <point x="585" y="298"/>
      <point x="522" y="360"/>
      <point x="393" y="373" type="curve"/>
      <point x="393" y="376" type="line"/>
      <point x="497" y="391"/>
      <point x="563" y="451"/>
    </contour>
  </outline>
</glyph>
<glyph name="uni0546" format="2">
  <advance width="672"/>
  <unicode hex="0546"/>
  <note>
uni0546
</note>
  <outline>
    <contour>
      <point x="337" y="-10" type="curve" smooth="yes"/>
      <point x="505" y="-10"/>
      <point x="610" y="85"/>
      <point x="610" y="247" type="curve" smooth="yes"/>
      <point x="610" y="420" type="line"/>
      <point x="469" y="420" type="line"/>
      <point x="469" y="256" type="line" smooth="yes"/>
      <point x="469" y="160"/>
      <point x="430" y="108"/>
      <point x="337" y="108" type="curve" smooth="yes"/>
      <point x="251" y="108"/>
      <point x="201" y="164"/>
      <point x="201" y="262" type="curve"/>
      <point x="60" y="262" type="line"/>
      <point x="60" y="92"/>
      <point x="167" y="-10"/>
    </contour>
    <contour>
      <point x="338" y="639" type="line"/>
      <point x="283" y="639" type="line" smooth="yes"/>
      <point x="223" y="639"/>
      <point x="197" y="655"/>
      <point x="197" y="730" type="curve" smooth="yes"/>
      <point x="197" y="760" type="line"/>
      <point x="56" y="760" type="line"/>
      <point x="56" y="731" type="line" smooth="yes"/>
      <point x="56" y="609"/>
      <point x="110" y="561"/>
      <point x="213" y="561" type="curve" smooth="yes"/>
      <point x="249" y="561" type="line"/>
      <point x="346" y="624" type="line"/>
    </contour>
    <contour>
      <point x="201" y="262" type="line"/>
      <point x="201" y="387"/>
      <point x="274" y="543"/>
      <point x="346" y="624" type="curve"/>
      <point x="211" y="624" type="line"/>
      <point x="122" y="530"/>
      <point x="60" y="397"/>
      <point x="60" y="262" type="curve"/>
    </contour>
  </outline>
</glyph>
<glyph name="uni0547" format="2">
  <advance width="682"/>
  <unicode hex="0547"/>
  <note>
uni0547
</note>
  <outline>
    <contour>
      <point x="429" y="580" type="curve"/>
      <point x="274" y="609" type="line"/>
      <point x="151" y="540"/>
      <point x="64" y="389"/>
      <point x="64" y="264" type="curve" smooth="yes"/>
      <point x="64" y="94"/>
      <point x="173" y="-10"/>
      <point x="343" y="-10" type="curve" smooth="yes"/>
      <point x="513" y="-10"/>
      <point x="619" y="88"/>
      <point x="619" y="250" type="curve" smooth="yes"/>
      <point x="619" y="283" type="line"/>
      <point x="478" y="283" type="line"/>
      <point x="478" y="259" type="line" smooth="yes"/>
      <point x="478" y="162"/>
      <point x="438" y="108"/>
      <point x="343" y="108" type="curve" smooth="yes"/>
      <point x="257" y="108"/>
      <point x="205" y="165"/>
      <point x="205" y="264" type="curve" smooth="yes"/>
      <point x="205" y="376"/>
      <point x="290" y="500"/>
    </contour>
    <contour>
      <point x="81" y="724" type="line"/>
      <point x="66" y="607" type="line"/>
      <point x="599" y="534" type="line"/>
      <point x="614" y="651" type="line"/>
    </contour>
  </outline>
</glyph>
<glyph name="uni0548" format="2">
  <advance width="734"/>
  <unicode hex="0548"/>
  <note>
uni0548
</note>
  <anchor x="367" y="714" name="top"/>
  <outline>
    <contour>
      <point x="85" y="0" type="line"/>
      <point x="226" y="0" type="line"/>
      <point x="226" y="440" type="line" smooth="yes"/>
      <point x="226" y="554"/>
      <point x="270" y="606"/>
      <point x="366" y="606" type="curve" smooth="yes"/>
      <point x="459" y="606"/>
      <point x="507" y="561"/>
      <point x="507" y="440" type="curve" smooth="yes"/>
      <point x="507" y="0" type="line"/>
      <point x="648" y="0" type="line"/>
      <point x="648" y="460" type="line" smooth="yes"/>
      <point x="648" y="620"/>
      <point x="550" y="724"/>
      <point x="370" y="724" type="curve" smooth="yes"/>
      <point x="181" y="724"/>
      <point x="85" y="612"/>
      <point x="85" y="462" type="curve" smooth="yes"/>
    </contour>
  </outline>
</glyph>
<glyph name="uni0549" format="2">
  <advance width="647"/>
  <unicode hex="0549"/>
  <note>
uni0549
</note>
  <outline>
    <contour>
      <point x="350" y="102" type="line"/>
      <point x="486" y="201"/>
      <point x="594" y="328"/>
      <point x="594" y="465" type="curve" smooth="yes"/>
      <point x="594" y="625"/>
      <point x="497" y="724"/>
      <point x="324" y="724" type="curve" smooth="yes"/>
      <point x="154" y="724"/>
      <point x="56" y="631"/>
      <point x="56" y="483" type="curve" smooth="yes"/>
      <point x="56" y="465" type="line"/>
      <point x="197" y="465" type="line"/>
      <point x="197" y="474" type="line" smooth="yes"/>
      <point x="197" y="553"/>
      <point x="228" y="606"/>
      <point x="324" y="606" type="curve" smooth="yes"/>
      <point x="412" y="606"/>
      <point x="453" y="550"/>
      <point x="453" y="460" type="curve" smooth="yes"/>
      <point x="453" y="356"/>
      <point x="383" y="279"/>
      <point x="254" y="172" type="curve"/>
    </contour>
    <contour>
      <point x="555" y="-1" type="curve"/>
      <point x="555" y="117" type="line"/>
      <point x="426" y="118"/>
      <point x="244" y="215"/>
      <point x="128" y="321" type="curve"/>
      <point x="48" y="227" type="line"/>
      <point x="202" y="91"/>
      <point x="388" y="1"/>
    </contour>
  </outline>
</glyph>
<glyph name="uni054A" format="2">
  <advance width="857"/>
  <unicode hex="054A"/>
  <note>
uni054A
</note>
  <outline>
    <contour>
      <point x="72" y="330" type="line"/>
      <point x="213" y="330" type="line"/>
      <point x="213" y="439" type="line" smooth="yes"/>
      <point x="213" y="554"/>
      <point x="277" y="606"/>
      <point x="421" y="606" type="curve" smooth="yes"/>
      <point x="558" y="606"/>
      <point x="630" y="561"/>
      <point x="630" y="439" type="curve" smooth="yes"/>
      <point x="630" y="0" type="line"/>
      <point x="771" y="0" type="line"/>
      <point x="771" y="460" type="line" smooth="yes"/>
      <point x="771" y="620"/>
      <point x="649" y="724"/>
      <point x="426" y="724" type="curve" smooth="yes"/>
      <point x="190" y="724"/>
      <point x="72" y="612"/>
      <point x="72" y="462" type="curve" smooth="yes"/>
    </contour>
    <contour>
      <point x="350" y="165" type="line"/>
      <point x="492" y="165" type="line"/>
      <point x="492" y="648" type="line"/>
      <point x="350" y="648" type="line"/>
    </contour>
  </outline>
</glyph>
<glyph name="uni054B" format="2">
  <advance width="670"/>
  <unicode hex="054B"/>
  <note>
uni054B
</note>
  <outline>
    <contour>
      <point x="508" y="0" type="line"/>
      <point x="639" y="0" type="line"/>
      <point x="639" y="66" type="line" smooth="yes"/>
      <point x="639" y="158"/>
      <point x="595" y="189"/>
      <point x="510" y="189" type="curve" smooth="yes"/>
      <point x="161" y="189" type="line"/>
      <point x="161" y="235" type="line"/>
      <point x="43" y="235" type="line"/>
      <point x="43" y="0" type="line"/>
      <point x="161" y="0" type="line"/>
      <point x="161" y="71" type="line"/>
      <point x="446" y="71" type="line" smooth="yes"/>
      <point x="493" y="71"/>
      <point x="508" y="63"/>
      <point x="508" y="27" type="curve" smooth="yes"/>
    </contour>
    <contour>
      <point x="344" y="261" type="curve"/>
      <point x="334" y="302"/>
      <point x="316" y="329"/>
      <point x="271" y="363" type="curve" smooth="yes"/>
      <point x="221" y="401"/>
      <point x="204" y="444"/>
      <point x="204" y="492" type="curve" smooth="yes"/>
      <point x="204" y="566"/>
      <point x="246" y="612"/>
      <point x="329" y="612" type="curve" smooth="yes"/>
      <point x="411" y="612"/>
      <point x="456" y="570"/>
      <point x="456" y="480" type="curve" smooth="yes"/>
      <point x="456" y="392"/>
      <point x="412" y="316"/>
    </contour>
    <contour>
      <point x="194" y="189" type="curve"/>
      <point x="409" y="189" type="line"/>
      <point x="547" y="288"/>
      <point x="597" y="374"/>
      <point x="597" y="488" type="curve" smooth="yes"/>
      <point x="597" y="644"/>
      <point x="488" y="724"/>
      <point x="330" y="724" type="curve" smooth="yes"/>
      <point x="170" y="724"/>
      <point x="63" y="634"/>
      <point x="63" y="496" type="curve" smooth="yes"/>
      <point x="63" y="408"/>
      <point x="93" y="352"/>
      <point x="174" y="298" type="curve" smooth="yes"/>
      <point x="230" y="261"/>
      <point x="241" y="230"/>
      <point x="241" y="205" type="curve"/>
      <point x="231" y="198"/>
      <point x="204" y="190"/>
    </contour>
  </outline>
</glyph>
<glyph name="uni054C" format="2">
  <advance width="818"/>
  <unicode hex="054C"/>
  <note>
uni054C
</note>
  <outline>
    <contour>
      <point x="86" y="0" type="line"/>
      <point x="227" y="0" type="line"/>
      <point x="227" y="439" type="line" smooth="yes"/>
      <point x="227" y="554"/>
      <point x="270" y="606"/>
      <point x="366" y="606" type="curve" smooth="yes"/>
      <point x="458" y="606"/>
      <point x="506" y="561"/>
      <point x="506" y="439" type="curve" smooth="yes"/>
      <point x="506" y="0" type="line"/>
      <point x="647" y="0" type="line"/>
      <point x="647" y="460" type="line" smooth="yes"/>
      <point x="647" y="620"/>
      <point x="550" y="724"/>
      <point x="369" y="724" type="curve" smooth="yes"/>
      <point x="180" y="724"/>
      <point x="86" y="612"/>
      <point x="86" y="462" type="curve" smooth="yes"/>
    </contour>
    <contour>
      <point x="631" y="351" type="line"/>
      <point x="631" y="233" type="line"/>
      <point x="791" y="233" type="line"/>
      <point x="791" y="351" type="line"/>
    </contour>
  </outline>
</glyph>
<glyph name="uni054D" format="2">
  <advance width="734"/>
  <unicode hex="054D"/>
  <note>
uni054D
</note>
  <outline>
    <contour>
      <point x="649" y="714" type="line"/>
      <point x="508" y="714" type="line"/>
      <point x="508" y="274" type="line" smooth="yes"/>
      <point x="508" y="160"/>
      <point x="464" y="108"/>
      <point x="368" y="108" type="curve" smooth="yes"/>
      <point x="275" y="108"/>
      <point x="227" y="153"/>
      <point x="227" y="274" type="curve" smooth="yes"/>
      <point x="227" y="714" type="line"/>
      <point x="86" y="714" type="line"/>
      <point x="86" y="254" type="line" smooth="yes"/>
      <point x="86" y="94"/>
      <point x="184" y="-10"/>
      <point x="364" y="-10" type="curve" smooth="yes"/>
      <point x="553" y="-10"/>
      <point x="649" y="102"/>
      <point x="649" y="252" type="curve" smooth="yes"/>
    </contour>
  </outline>
</glyph>
<glyph name="uni054E" format="2">
  <advance width="816"/>
  <unicode hex="054E"/>
  <note>
uni054E
</note>
  <outline>
    <contour>
      <point x="636" y="0" type="line"/>
      <point x="636" y="714" type="line"/>
      <point x="495" y="714" type="line"/>
      <point x="495" y="246" type="line"/>
      <point x="502" y="246" type="line"/>
      <point x="497" y="209"/>
      <point x="495" y="159"/>
      <point x="495" y="136" type="curve" smooth="yes"/>
      <point x="495" y="0" type="line"/>
    </contour>
    <contour>
      <point x="543" y="551" type="line"/>
      <point x="495" y="551" type="line"/>
      <point x="495" y="490" type="line" smooth="yes"/>
      <point x="495" y="350"/>
      <point x="455" y="269"/>
      <point x="332" y="269" type="curve" smooth="yes"/>
      <point x="241" y="269"/>
      <point x="200" y="321"/>
      <point x="200" y="425" type="curve" smooth="yes"/>
      <point x="200" y="467" type="line"/>
      <point x="59" y="467" type="line"/>
      <point x="59" y="391" type="line" smooth="yes"/>
      <point x="59" y="225"/>
      <point x="150" y="151"/>
      <point x="289" y="151" type="curve" smooth="yes"/>
      <point x="441" y="151"/>
      <point x="543" y="252"/>
      <point x="543" y="400" type="curve" smooth="yes"/>
    </contour>
    <contour>
      <point x="610" y="118" type="line"/>
      <point x="610" y="0" type="line"/>
      <point x="790" y="0" type="line"/>
      <point x="790" y="118" type="line"/>
    </contour>
  </outline>
</glyph>
<glyph name="uni054F" format="2">
  <advance width="593"/>
  <unicode hex="054F"/>
  <note>
uni054F
</note>
  <outline>
    <contour>
      <point x="543" y="197" type="curve" smooth="yes"/>
      <point x="543" y="309"/>
      <point x="478" y="371"/>
      <point x="330" y="420" type="curve" smooth="yes"/>
      <point x="213" y="459"/>
      <point x="193" y="482"/>
      <point x="193" y="528" type="curve" smooth="yes"/>
      <point x="193" y="576"/>
      <point x="226" y="606"/>
      <point x="307" y="606" type="curve" smooth="yes"/>
      <point x="361" y="606"/>
      <point x="418" y="594"/>
      <point x="494" y="561" type="curve"/>
      <point x="529" y="675" type="line"/>
      <point x="451" y="708"/>
      <point x="383" y="724"/>
      <point x="313" y="724" type="curve" smooth="yes"/>
      <point x="155" y="724"/>
      <point x="55" y="650"/>
      <point x="55" y="523" type="curve" smooth="yes"/>
      <point x="55" y="394"/>
      <point x="113" y="363"/>
      <point x="258" y="312" type="curve" smooth="yes"/>
      <point x="383" y="268"/>
      <point x="404" y="240"/>
      <point x="404" y="190" type="curve" smooth="yes"/>
      <point x="404" y="140"/>
      <point x="369" y="108"/>
      <point x="273" y="108" type="curve" smooth="yes"/>
      <point x="216" y="108"/>
      <point x="137" y="126"/>
      <point x="47" y="168" type="curve"/>
      <point x="47" y="41" type="line"/>
      <point x="112" y="10"/>
      <point x="191" y="-10"/>
      <point x="277" y="-10" type="curve" smooth="yes"/>
      <point x="445" y="-10"/>
      <point x="543" y="69"/>
    </contour>
  </outline>
</glyph>
<glyph name="uni0550" format="2">
  <advance width="675"/>
  <unicode hex="0550"/>
  <note>
uni0550
</note>
  <outline>
    <contour>
      <point x="86" y="0" type="line"/>
      <point x="227" y="0" type="line"/>
      <point x="227" y="439" type="line" smooth="yes"/>
      <point x="227" y="554"/>
      <point x="266" y="606"/>
      <point x="355" y="606" type="curve" smooth="yes"/>
      <point x="446" y="606"/>
      <point x="484" y="556"/>
      <point x="484" y="432" type="curve"/>
      <point x="625" y="432" type="line"/>
      <point x="625" y="623"/>
      <point x="540" y="724"/>
      <point x="358" y="724" type="curve" smooth="yes"/>
      <point x="177" y="724"/>
      <point x="86" y="612"/>
      <point x="86" y="462" type="curve" smooth="yes"/>
    </contour>
  </outline>
</glyph>
<glyph name="uni0551" format="2">
  <advance width="653"/>
  <unicode hex="0551"/>
  <note>
uni0551
</note>
  <outline>
    <contour>
      <point x="371" y="425" type="line"/>
      <point x="216" y="471"/>
      <point x="194" y="496"/>
      <point x="194" y="541" type="curve" smooth="yes"/>
      <point x="194" y="587"/>
      <point x="239" y="612"/>
      <point x="307" y="612" type="curve" smooth="yes"/>
      <point x="375" y="612"/>
      <point x="419" y="587"/>
      <point x="419" y="541" type="curve" smooth="yes"/>
      <point x="419" y="500"/>
      <point x="389" y="473"/>
      <point x="323" y="453" type="curve" smooth="yes"/>
      <point x="60" y="374" type="line"/>
      <point x="97" y="268" type="line"/>
      <point x="307" y="334" type="line"/>
      <point x="412" y="307"/>
      <point x="460" y="271"/>
      <point x="460" y="209" type="curve" smooth="yes"/>
      <point x="460" y="143"/>
      <point x="402" y="108"/>
      <point x="293" y="108" type="curve" smooth="yes"/>
      <point x="230" y="108"/>
      <point x="155" y="125"/>
      <point x="75" y="164" type="curve"/>
      <point x="75" y="38" type="line"/>
      <point x="131" y="11"/>
      <point x="219" y="-10"/>
      <point x="297" y="-10" type="curve" smooth="yes"/>
      <point x="486" y="-10"/>
      <point x="602" y="69"/>
      <point x="602" y="207" type="curve" smooth="yes"/>
      <point x="602" y="292"/>
      <point x="552" y="367"/>
      <point x="446" y="397" type="curve"/>
      <point x="446" y="402" type="line"/>
      <point x="520" y="438"/>
      <point x="560" y="483"/>
      <point x="560" y="550" type="curve" smooth="yes"/>
      <point x="560" y="658"/>
      <point x="470" y="724"/>
      <point x="307" y="724" type="curve" smooth="yes"/>
      <point x="161" y="724"/>
      <point x="53" y="658"/>
      <point x="53" y="550" type="curve" smooth="yes"/>
      <point x="53" y="452"/>
      <point x="115" y="401"/>
      <point x="269" y="350" type="curve"/>
    </contour>
  </outline>
</glyph>
<glyph name="uni0552" format="2">
  <advance width="632"/>
  <unicode hex="0552"/>
  <note>
uni0552
</note>
  <outline>
    <contour>
      <point x="91" y="0" type="line"/>
      <point x="232" y="0" type="line"/>
      <point x="232" y="437" type="line"/>
      <point x="264" y="437" type="line" smooth="yes"/>
      <point x="316" y="437"/>
      <point x="329" y="419"/>
      <point x="386" y="305" type="curve" smooth="yes"/>
      <point x="427" y="223"/>
      <point x="479" y="187"/>
      <point x="558" y="187" type="curve" smooth="yes"/>
      <point x="594" y="187" type="line"/>
      <point x="594" y="305" type="line"/>
      <point x="573" y="305" type="line" smooth="yes"/>
      <point x="537" y="305"/>
      <point x="522" y="314"/>
      <point x="471" y="413" type="curve" smooth="yes"/>
      <point x="411" y="530"/>
      <point x="378" y="555"/>
      <point x="274" y="555" type="curve" smooth="yes"/>
      <point x="232" y="555" type="line"/>
      <point x="232" y="714" type="line"/>
      <point x="91" y="714" type="line"/>
    </contour>
  </outline>
</glyph>
<glyph name="uni0553" format="2">
  <advance width="850"/>
  <unicode hex="0553"/>
  <note>
uni0553
</note>
  <outline>
    <contour>
      <point x="489" y="714" type="line"/>
      <point x="362" y="714" type="line"/>
      <point x="362" y="636" type="line"/>
      <point x="132" y="630"/>
      <point x="46" y="512"/>
      <point x="46" y="370" type="curve" smooth="yes"/>
      <point x="46" y="246"/>
      <point x="121" y="105"/>
      <point x="362" y="100" type="curve"/>
      <point x="362" y="0" type="line"/>
      <point x="489" y="0" type="line"/>
      <point x="489" y="100" type="line"/>
      <point x="726" y="105"/>
      <point x="805" y="244"/>
      <point x="805" y="371" type="curve" smooth="yes"/>
      <point x="805" y="513"/>
      <point x="718" y="630"/>
      <point x="489" y="636" type="curve"/>
    </contour>
    <contour>
      <point x="362" y="526" type="curve"/>
      <point x="362" y="210" type="line"/>
      <point x="236" y="214"/>
      <point x="179" y="275"/>
      <point x="179" y="371" type="curve" smooth="yes"/>
      <point x="179" y="460"/>
      <point x="229" y="520"/>
    </contour>
    <contour>
      <point x="489" y="526" type="line"/>
      <point x="623" y="520"/>
      <point x="672" y="460"/>
      <point x="672" y="372" type="curve" smooth="yes"/>
      <point x="672" y="275"/>
      <point x="615" y="214"/>
      <point x="489" y="210" type="curve"/>
    </contour>
  </outline>
</glyph>
<glyph name="uni0554" format="2">
  <advance width="653"/>
  <unicode hex="0554"/>
  <note>
uni0554
</note>
  <outline>
    <contour>
      <point x="104" y="0" type="line"/>
      <point x="245" y="0" type="line"/>
      <point x="245" y="305" type="line"/>
      <point x="339" y="305" type="line" smooth="yes"/>
      <point x="510" y="305"/>
      <point x="596" y="381"/>
      <point x="596" y="510" type="curve" smooth="yes"/>
      <point x="596" y="635"/>
      <point x="506" y="724"/>
      <point x="355" y="724" type="curve" smooth="yes"/>
      <point x="208" y="724"/>
      <point x="104" y="623"/>
      <point x="104" y="439" type="curve" smooth="yes"/>
    </contour>
    <contour>
      <point x="245" y="423" type="line"/>
      <point x="245" y="563"/>
      <point x="280" y="606"/>
      <point x="357" y="606" type="curve" smooth="yes"/>
      <point x="431" y="606"/>
      <point x="454" y="565"/>
      <point x="454" y="509" type="curve" smooth="yes"/>
      <point x="454" y="452"/>
      <point x="405" y="423"/>
      <point x="336" y="423" type="curve" smooth="yes"/>
    </contour>
    <contour>
      <point x="10" y="223" type="line"/>
      <point x="10" y="105" type="line"/>
      <point x="596" y="105" type="line"/>
      <point x="596" y="223" type="line"/>
    </contour>
  </outline>
</glyph>
<glyph name="uni0555" format="2">
  <advance width="793"/>
  <unicode hex="0555"/>
  <note>
uni0555
</note>
  <anchor x="396" y="714" name="top"/>
  <outline>
    <contour>
      <point x="734" y="358" type="curve" smooth="yes"/>
      <point x="734" y="581"/>
      <point x="626" y="725"/>
      <point x="397" y="725" type="curve" smooth="yes"/>
      <point x="166" y="725"/>
      <point x="58" y="580"/>
      <point x="58" y="359" type="curve" smooth="yes"/>
      <point x="58" y="137"/>
      <point x="165" y="-10"/>
      <point x="396" y="-10" type="curve" smooth="yes"/>
      <point x="627" y="-10"/>
      <point x="734" y="137"/>
    </contour>
    <contour>
      <point x="207" y="358" type="curve" smooth="yes"/>
      <point x="207" y="512"/>
      <point x="264" y="607"/>
      <point x="398" y="607" type="curve" smooth="yes"/>
      <point x="530" y="607"/>
      <point x="586" y="513"/>
      <point x="586" y="358" type="curve" smooth="yes"/>
      <point x="586" y="204"/>
      <point x="531" y="108"/>
      <point x="396" y="108" type="curve" smooth="yes"/>
      <point x="264" y="108"/>
      <point x="207" y="204"/>
    </contour>
  </outline>
</glyph>
<glyph name="uni0556" format="2">
  <advance width="776"/>
  <unicode hex="0556"/>
  <note>
uni0556
</note>
  <outline>
    <contour>
      <point x="376" y="-10" type="curve" smooth="yes"/>
      <point x="603" y="-10"/>
      <point x="727" y="59"/>
      <point x="727" y="218" type="curve" smooth="yes"/>
      <point x="727" y="337"/>
      <point x="660" y="405"/>
      <point x="449" y="427" type="curve"/>
      <point x="449" y="714" type="line"/>
      <point x="305" y="714" type="line" smooth="yes"/>
      <point x="155" y="714"/>
      <point x="64" y="639"/>
      <point x="64" y="523" type="curve" smooth="yes"/>
      <point x="64" y="418"/>
      <point x="122" y="352"/>
      <point x="308" y="328" type="curve"/>
      <point x="308" y="108" type="line"/>
      <point x="227" y="112"/>
      <point x="141" y="134"/>
      <point x="49" y="177" type="curve"/>
      <point x="49" y="51" type="line"/>
      <point x="145" y="8"/>
      <point x="254" y="-10"/>
    </contour>
    <contour>
      <point x="449" y="108" type="curve"/>
      <point x="449" y="315" type="line"/>
      <point x="528" y="306"/>
      <point x="589" y="286"/>
      <point x="589" y="216" type="curve" smooth="yes"/>
      <point x="589" y="149"/>
      <point x="541" y="110"/>
    </contour>
    <contour>
      <point x="308" y="440" type="line"/>
      <point x="229" y="450"/>
      <point x="202" y="476"/>
      <point x="202" y="522" type="curve" smooth="yes"/>
      <point x="202" y="568"/>
      <point x="225" y="596"/>
      <point x="293" y="596" type="curve" smooth="yes"/>
      <point x="308" y="596" type="line"/>
    </contour>
  </outline>
</glyph>
<glyph name="uni0559" format="2">
  <advance width="234"/>
  <unicode hex="0559"/>
  <note>
uni0559
</note>
  <outline>
    <contour>
      <point x="188" y="435" type="curve"/>
      <point x="188" y="553" type="line"/>
      <point x="155" y="553"/>
      <point x="137" y="570"/>
      <point x="137" y="604" type="curve" smooth="yes"/>
      <point x="137" y="636"/>
      <point x="153" y="660"/>
      <point x="201" y="692" type="curve"/>
      <point x="152" y="760" type="line"/>
      <point x="61" y="716"/>
      <point x="15" y="657"/>
      <point x="15" y="583" type="curve" smooth="yes"/>
      <point x="15" y="498"/>
      <point x="71" y="435"/>
    </contour>
  </outline>
</glyph>
<glyph name="uni055A" format="2">
  <advance width="234"/>
  <unicode hex="055A"/>
  <note>
uni055A
</note>
  <outline>
    <contour>
      <point x="46" y="760" type="curve"/>
      <point x="46" y="642" type="line"/>
      <point x="78" y="642"/>
      <point x="97" y="624"/>
      <point x="97" y="591" type="curve" smooth="yes"/>
      <point x="97" y="559"/>
      <point x="80" y="534"/>
      <point x="32" y="503" type="curve"/>
      <point x="82" y="435" type="line"/>
      <point x="173" y="479"/>
      <point x="218" y="537"/>
      <point x="218" y="612" type="curve" smooth="yes"/>
      <point x="218" y="697"/>
      <point x="162" y="760"/>
    </contour>
  </outline>
</glyph>
<glyph name="uni055B" format="2">
  <advance width="279"/>
  <unicode hex="055B"/>
  <note>
uni055B
</note>
  <outline>
    <contour>
      <point x="211" y="814" type="line"/>
      <point x="93" y="814" type="line"/>
      <point x="87" y="772"/>
      <point x="74" y="705"/>
      <point x="49" y="600" type="curve"/>
      <point x="150" y="600" type="line"/>
      <point x="181" y="675"/>
      <point x="203" y="738"/>
      <point x="220" y="800" type="curve"/>
    </contour>
  </outline>
</glyph>
<glyph name="uni055C" format="2">
  <advance width="302"/>
  <unicode hex="055C"/>
  <note>
uni055C
</note>
  <outline>
    <contour>
      <point x="27" y="603" type="curve"/>
      <point x="145" y="603" type="line"/>
      <point x="145" y="615" type="line" smooth="yes"/>
      <point x="145" y="637"/>
      <point x="153" y="652"/>
      <point x="201" y="680" type="curve" smooth="yes"/>
      <point x="265" y="717"/>
      <point x="275" y="740"/>
      <point x="275" y="814" type="curve"/>
      <point x="157" y="814" type="line"/>
      <point x="157" y="802" type="line" smooth="yes"/>
      <point x="157" y="770"/>
      <point x="147" y="760"/>
      <point x="94" y="726" type="curve" smooth="yes"/>
      <point x="32" y="687"/>
      <point x="27" y="656"/>
    </contour>
  </outline>
</glyph>
<glyph name="uni055D" format="2">
  <advance width="279"/>
  <unicode hex="055D"/>
  <note>
uni055D
</note>
  <outline>
    <contour>
      <point x="68" y="814" type="line"/>
      <point x="59" y="800" type="line"/>
      <point x="76" y="737"/>
      <point x="98" y="676"/>
      <point x="129" y="600" type="curve"/>
      <point x="230" y="600" type="line"/>
      <point x="205" y="706"/>
      <point x="192" y="771"/>
      <point x="186" y="814" type="curve"/>
    </contour>
  </outline>
</glyph>
<glyph name="uni055E" format="2">
  <advance width="441"/>
  <unicode hex="055E"/>
  <note>
uni055E
</note>
  <outline>
    <contour>
      <point x="52" y="594" type="curve"/>
      <point x="161" y="594" type="line"/>
      <point x="165" y="696"/>
      <point x="198" y="734"/>
      <point x="252" y="734" type="curve" smooth="yes"/>
      <point x="275" y="734"/>
      <point x="291" y="725"/>
      <point x="291" y="709" type="curve" smooth="yes"/>
      <point x="291" y="693"/>
      <point x="277" y="679"/>
      <point x="241" y="679" type="curve"/>
      <point x="241" y="593" type="line"/>
      <point x="343" y="594"/>
      <point x="394" y="640"/>
      <point x="394" y="712" type="curve" smooth="yes"/>
      <point x="394" y="787"/>
      <point x="339" y="828"/>
      <point x="258" y="828" type="curve" smooth="yes"/>
      <point x="139" y="828"/>
      <point x="56" y="729"/>
    </contour>
  </outline>
</glyph>
<glyph name="uni055F" format="2">
  <advance width="402"/>
  <unicode hex="055F"/>
  <note>
uni055F
</note>
  <outline>
    <contour>
      <point x="184" y="602" type="curve" smooth="yes"/>
      <point x="386" y="602" type="line"/>
      <point x="386" y="696" type="line"/>
      <point x="193" y="696" type="line" smooth="yes"/>
      <point x="162" y="696"/>
      <point x="147" y="702"/>
      <point x="147" y="731" type="curve" smooth="yes"/>
      <point x="147" y="749"/>
      <point x="161" y="760"/>
      <point x="190" y="760" type="curve" smooth="yes"/>
      <point x="199" y="760"/>
      <point x="215" y="758"/>
      <point x="238" y="749" type="curve"/>
      <point x="265" y="839" type="line"/>
      <point x="235" y="849"/>
      <point x="208" y="854"/>
      <point x="180" y="854" type="curve" smooth="yes"/>
      <point x="100" y="854"/>
      <point x="38" y="803"/>
      <point x="38" y="725" type="curve" smooth="yes"/>
      <point x="38" y="642"/>
      <point x="86" y="602"/>
    </contour>
  </outline>
</glyph>
<glyph name="uni0560" format="2">
  <advance width="973"/>
  <unicode hex="0560"/>
  <note>
uni0561
</note>
  <outline>
    <contour>
      <point x="706" y="509" type="curve" smooth="yes"/>
      <point x="636" y="509"/>
      <point x="569" y="475"/>
      <point x="541" y="429" type="curve"/>
      <point x="534" y="429" type="line"/>
      <point x="503" y="482"/>
      <point x="447" y="509"/>
      <point x="371" y="509" type="curve" smooth="yes"/>
      <point x="296" y="509"/>
      <point x="246" y="478"/>
      <point x="219" y="433" type="curve"/>
      <point x="211" y="433" type="line"/>
      <point x="194" y="500" type="line"/>
      <point x="86" y="500" type="line"/>
      <point x="86" y="0" type="line"/>
      <point x="225" y="0" type="line"/>
      <point x="225" y="228" type="line" smooth="yes"/>
      <point x="225" y="340"/>
      <point x="265" y="398"/>
      <point x="333" y="398" type="curve" smooth="yes"/>
      <point x="384" y="398"/>
      <point x="419" y="363"/>
      <point x="419" y="295" type="curve" smooth="yes"/>
      <point x="419" y="0" type="line"/>
      <point x="559" y="0" type="line"/>
      <point x="559" y="228" type="line" smooth="yes"/>
      <point x="559" y="341"/>
      <point x="598" y="398"/>
      <point x="668" y="398" type="curve" smooth="yes"/>
      <point x="719" y="398"/>
      <point x="753" y="363"/>
      <point x="753" y="295" type="curve" smooth="yes"/>
      <point x="753" y="0" type="line"/>
      <point x="892" y="0" type="line"/>
      <point x="892" y="326" type="line" smooth="yes"/>
      <point x="892" y="445"/>
      <point x="825" y="509"/>
    </contour>
  </outline>
</glyph>
<glyph name="uni0561" format="2">
  <advance width="973"/>
  <unicode hex="0561"/>
  <note>
uni0561
</note>
  <anchor x="486" y="492" name="top"/>
  <outline>
    <contour>
      <point x="267" y="-9" type="curve" smooth="yes"/>
      <point x="337" y="-9"/>
      <point x="404" y="25"/>
      <point x="432" y="71" type="curve"/>
      <point x="439" y="71" type="line"/>
      <point x="470" y="18"/>
      <point x="526" y="-9"/>
      <point x="602" y="-9" type="curve" smooth="yes"/>
      <point x="677" y="-9"/>
      <point x="727" y="22"/>
      <point x="754" y="67" type="curve"/>
      <point x="762" y="67" type="line"/>
      <point x="779" y="0" type="line"/>
      <point x="887" y="0" type="line"/>
      <point x="887" y="500" type="line"/>
      <point x="748" y="500" type="line"/>
      <point x="748" y="272" type="line" smooth="yes"/>
      <point x="748" y="160"/>
      <point x="708" y="102"/>
      <point x="640" y="102" type="curve" smooth="yes"/>
      <point x="589" y="102"/>
      <point x="554" y="137"/>
      <point x="554" y="205" type="curve" smooth="yes"/>
      <point x="554" y="500" type="line"/>
      <point x="414" y="500" type="line"/>
      <point x="414" y="272" type="line" smooth="yes"/>
      <point x="414" y="159"/>
      <point x="375" y="102"/>
      <point x="305" y="102" type="curve" smooth="yes"/>
      <point x="254" y="102"/>
      <point x="220" y="137"/>
      <point x="220" y="205" type="curve" smooth="yes"/>
      <point x="220" y="500" type="line"/>
      <point x="81" y="500" type="line"/>
      <point x="81" y="174" type="line" smooth="yes"/>
      <point x="81" y="55"/>
      <point x="148" y="-9"/>
    </contour>
  </outline>
</glyph>
<glyph name="uni0562" format="2">
  <advance width="641"/>
  <unicode hex="0562"/>
  <note>
uni0562
</note>
  <outline>
    <contour>
      <point x="85" y="-239" type="line"/>
      <point x="224" y="-239" type="line"/>
      <point x="224" y="228" type="line" smooth="yes"/>
      <point x="224" y="340"/>
      <point x="263" y="399"/>
      <point x="334" y="399" type="curve" smooth="yes"/>
      <point x="388" y="399"/>
      <point x="420" y="364"/>
      <point x="420" y="296" type="curve" smooth="yes"/>
      <point x="420" y="198" type="line"/>
      <point x="559" y="198" type="line"/>
      <point x="559" y="325" type="line" smooth="yes"/>
      <point x="559" y="445"/>
      <point x="490" y="510"/>
      <point x="372" y="510" type="curve" smooth="yes"/>
      <point x="298" y="510"/>
      <point x="246" y="479"/>
      <point x="219" y="433" type="curve"/>
      <point x="211" y="433" type="line"/>
      <point x="194" y="500" type="line"/>
      <point x="85" y="500" type="line"/>
    </contour>
    <contour>
      <point x="148" y="105" type="line"/>
      <point x="148" y="0" type="line"/>
      <point x="575" y="0" type="line"/>
      <point x="575" y="105" type="line"/>
    </contour>
  </outline>
</glyph>
<glyph name="uni0563" format="2">
  <advance width="709"/>
  <unicode hex="0563"/>
  <note>
uni0563
</note>
  <outline>
    <contour>
      <point x="410" y="-239" type="line"/>
      <point x="549" y="-239" type="line"/>
      <point x="549" y="0" type="line"/>
      <point x="704" y="0" type="line"/>
      <point x="704" y="105" type="line"/>
      <point x="549" y="105" type="line"/>
      <point x="549" y="500" type="line"/>
      <point x="440" y="500" type="line"/>
      <point x="423" y="433" type="line"/>
      <point x="417" y="433" type="line"/>
      <point x="383" y="483"/>
      <point x="333" y="510"/>
      <point x="267" y="510" type="curve" smooth="yes"/>
      <point x="136" y="510"/>
      <point x="58" y="410"/>
      <point x="58" y="249" type="curve" smooth="yes"/>
      <point x="58" y="93"/>
      <point x="134" y="-9"/>
      <point x="263" y="-9" type="curve" smooth="yes"/>
      <point x="330" y="-9"/>
      <point x="378" y="18"/>
      <point x="408" y="68" type="curve"/>
      <point x="417" y="68" type="line"/>
      <point x="412" y="30"/>
      <point x="410" y="-2"/>
      <point x="410" y="-28" type="curve" smooth="yes"/>
    </contour>
    <contour>
      <point x="302" y="102" type="curve" smooth="yes"/>
      <point x="233" y="102"/>
      <point x="200" y="151"/>
      <point x="200" y="248" type="curve" smooth="yes"/>
      <point x="200" y="345"/>
      <point x="237" y="399"/>
      <point x="301" y="399" type="curve" smooth="yes"/>
      <point x="378" y="399"/>
      <point x="410" y="350"/>
      <point x="410" y="256" type="curve" smooth="yes"/>
      <point x="410" y="248" type="line" smooth="yes"/>
      <point x="410" y="149"/>
      <point x="373" y="102"/>
    </contour>
  </outline>
</glyph>
<glyph name="uni0564" format="2">
  <advance width="719"/>
  <unicode hex="0564"/>
  <note>
uni0564
</note>
  <outline>
    <contour>
      <point x="420" y="-239" type="line"/>
      <point x="559" y="-239" type="line"/>
      <point x="559" y="0" type="line"/>
      <point x="713" y="0" type="line"/>
      <point x="713" y="105" type="line"/>
      <point x="559" y="105" type="line"/>
      <point x="559" y="325" type="line" smooth="yes"/>
      <point x="559" y="445"/>
      <point x="490" y="510"/>
      <point x="372" y="510" type="curve" smooth="yes"/>
      <point x="297" y="510"/>
      <point x="246" y="479"/>
      <point x="219" y="433" type="curve"/>
      <point x="211" y="433" type="line"/>
      <point x="194" y="500" type="line"/>
      <point x="85" y="500" type="line"/>
      <point x="85" y="0" type="line"/>
      <point x="224" y="0" type="line"/>
      <point x="224" y="228" type="line" smooth="yes"/>
      <point x="224" y="340"/>
      <point x="262" y="399"/>
      <point x="334" y="399" type="curve" smooth="yes"/>
      <point x="388" y="399"/>
      <point x="420" y="364"/>
      <point x="420" y="296" type="curve" smooth="yes"/>
    </contour>
  </outline>
</glyph>
<glyph name="uni0565" format="2">
  <advance width="641"/>
  <unicode hex="0565"/>
  <note>
uni0565
</note>
  <outline>
    <contour>
      <point x="555" y="304" type="line"/>
      <point x="416" y="304" type="line"/>
      <point x="416" y="272" type="line" smooth="yes"/>
      <point x="416" y="160"/>
      <point x="377" y="101"/>
      <point x="306" y="101" type="curve" smooth="yes"/>
      <point x="252" y="101"/>
      <point x="220" y="137"/>
      <point x="220" y="204" type="curve" smooth="yes"/>
      <point x="220" y="760" type="line"/>
      <point x="81" y="760" type="line"/>
      <point x="81" y="176" type="line" smooth="yes"/>
      <point x="81" y="56"/>
      <point x="150" y="-10"/>
      <point x="268" y="-10" type="curve" smooth="yes"/>
      <point x="342" y="-10"/>
      <point x="394" y="21"/>
      <point x="421" y="68" type="curve"/>
      <point x="429" y="68" type="line"/>
      <point x="446" y="0" type="line"/>
      <point x="555" y="0" type="line"/>
    </contour>
    <contour>
      <point x="148" y="500" type="line"/>
      <point x="148" y="395" type="line"/>
      <point x="571" y="395" type="line"/>
      <point x="571" y="500" type="line"/>
    </contour>
  </outline>
</glyph>
<glyph name="uni0567" format="2">
  <advance width="514"/>
  <unicode hex="0567"/>
  <note>
uni0567
</note>
  <outline>
    <contour>
      <point x="85" y="0" type="line"/>
      <point x="224" y="0" type="line"/>
      <point x="224" y="760" type="line"/>
      <point x="85" y="760" type="line"/>
    </contour>
    <contour>
      <point x="148" y="500" type="line"/>
      <point x="148" y="395" type="line"/>
      <point x="471" y="395" type="line"/>
      <point x="471" y="500" type="line"/>
    </contour>
    <contour>
      <point x="85" y="0" type="line"/>
      <point x="271" y="0" type="line" smooth="yes"/>
      <point x="323" y="0"/>
      <point x="333" y="-20"/>
      <point x="333" y="-75" type="curve" smooth="yes"/>
      <point x="333" y="-85" type="line"/>
      <point x="472" y="-85" type="line"/>
      <point x="472" y="-51" type="line" smooth="yes"/>
      <point x="472" y="64"/>
      <point x="429" y="105"/>
      <point x="310" y="105" type="curve" smooth="yes"/>
      <point x="85" y="105" type="line"/>
    </contour>
  </outline>
</glyph>
<glyph name="uni0568" format="2">
  <advance width="641"/>
  <unicode hex="0568"/>
  <note>
uni0568
</note>
  <outline>
    <contour>
      <point x="85" y="-239" type="line"/>
      <point x="224" y="-239" type="line"/>
      <point x="224" y="228" type="line" smooth="yes"/>
      <point x="224" y="340"/>
      <point x="263" y="399"/>
      <point x="334" y="399" type="curve" smooth="yes"/>
      <point x="388" y="399"/>
      <point x="420" y="364"/>
      <point x="420" y="296" type="curve" smooth="yes"/>
      <point x="420" y="0" type="line"/>
      <point x="559" y="0" type="line"/>
      <point x="559" y="325" type="line" smooth="yes"/>
      <point x="559" y="445"/>
      <point x="490" y="510"/>
      <point x="372" y="510" type="curve" smooth="yes"/>
      <point x="298" y="510"/>
      <point x="246" y="479"/>
      <point x="219" y="433" type="curve"/>
      <point x="211" y="433" type="line"/>
      <point x="194" y="500" type="line"/>
      <point x="85" y="500" type="line"/>
    </contour>
    <contour>
      <point x="148" y="-134" type="line"/>
      <point x="148" y="-239" type="line"/>
      <point x="575" y="-239" type="line"/>
      <point x="575" y="-134" type="line"/>
    </contour>
  </outline>
</glyph>
<glyph name="uni0569" format="2">
  <advance width="750"/>
  <unicode hex="0569"/>
  <note>
uni0569
</note>
  <outline>
    <contour>
      <point x="85" y="-239" type="line"/>
      <point x="224" y="-239" type="line"/>
      <point x="224" y="256" type="line" smooth="yes"/>
      <point x="224" y="351"/>
      <point x="286" y="399"/>
      <point x="387" y="399" type="curve"/>
      <point x="397" y="510" type="line"/>
      <point x="324" y="510"/>
      <point x="251" y="483"/>
      <point x="218" y="433" type="curve"/>
      <point x="211" y="433" type="line"/>
      <point x="194" y="500" type="line"/>
      <point x="85" y="500" type="line"/>
    </contour>
    <contour>
      <point x="724" y="153" type="curve"/>
      <point x="755" y="246" type="line"/>
      <point x="671" y="283"/>
      <point x="559" y="298"/>
      <point x="476" y="298" type="curve" smooth="yes"/>
      <point x="353" y="298"/>
      <point x="282" y="237"/>
      <point x="282" y="142" type="curve" smooth="yes"/>
      <point x="282" y="54"/>
      <point x="352" y="-10"/>
      <point x="461" y="-10" type="curve" smooth="yes"/>
      <point x="599" y="-10"/>
      <point x="671" y="92"/>
      <point x="671" y="234" type="curve" smooth="yes"/>
      <point x="671" y="406"/>
      <point x="590" y="510"/>
      <point x="397" y="510" type="curve"/>
      <point x="387" y="399" type="line"/>
      <point x="488" y="399"/>
      <point x="529" y="349"/>
      <point x="529" y="233" type="curve" smooth="yes"/>
      <point x="529" y="122"/>
      <point x="515" y="90"/>
      <point x="461" y="90" type="curve" smooth="yes"/>
      <point x="423" y="90"/>
      <point x="404" y="110"/>
      <point x="404" y="143" type="curve" smooth="yes"/>
      <point x="404" y="175"/>
      <point x="430" y="198"/>
      <point x="477" y="198" type="curve" smooth="yes"/>
      <point x="549" y="198"/>
      <point x="659" y="180"/>
    </contour>
  </outline>
</glyph>
<glyph name="uni056A" format="2">
  <advance width="671"/>
  <unicode hex="056A"/>
  <note>
uni056A
</note>
  <outline>
    <contour>
      <point x="324" y="399" type="curve" smooth="yes"/>
      <point x="435" y="399"/>
      <point x="552" y="365"/>
      <point x="645" y="317" type="curve"/>
      <point x="675" y="422" type="line"/>
      <point x="554" y="483"/>
      <point x="447" y="510"/>
      <point x="324" y="510" type="curve" smooth="yes"/>
      <point x="156" y="510"/>
      <point x="58" y="412"/>
      <point x="58" y="245" type="curve" smooth="yes"/>
      <point x="58" y="94"/>
      <point x="140" y="-10"/>
      <point x="307" y="-10" type="curve" smooth="yes"/>
      <point x="474" y="-10"/>
      <point x="547" y="94"/>
      <point x="547" y="245" type="curve" smooth="yes"/>
      <point x="547" y="760" type="line"/>
      <point x="408" y="760" type="line"/>
      <point x="408" y="248" type="line" smooth="yes"/>
      <point x="408" y="161"/>
      <point x="382" y="101"/>
      <point x="307" y="101" type="curve" smooth="yes"/>
      <point x="233" y="101"/>
      <point x="200" y="161"/>
      <point x="200" y="248" type="curve" smooth="yes"/>
      <point x="200" y="347"/>
      <point x="239" y="399"/>
    </contour>
  </outline>
</glyph>
<glyph name="uni056B" format="2">
  <advance width="641"/>
  <unicode hex="056B"/>
  <note>
uni056B
</note>
  <outline>
    <contour>
      <point x="224" y="760" type="line"/>
      <point x="85" y="760" type="line"/>
      <point x="85" y="-239" type="line"/>
      <point x="224" y="-239" type="line"/>
      <point x="224" y="228" type="line" smooth="yes"/>
      <point x="224" y="340"/>
      <point x="262" y="399"/>
      <point x="334" y="399" type="curve" smooth="yes"/>
      <point x="388" y="399"/>
      <point x="420" y="364"/>
      <point x="420" y="296" type="curve" smooth="yes"/>
      <point x="420" y="0" type="line"/>
      <point x="559" y="0" type="line"/>
      <point x="559" y="325" type="line" smooth="yes"/>
      <point x="559" y="445"/>
      <point x="491" y="510"/>
      <point x="372" y="510" type="curve" smooth="yes"/>
      <point x="297" y="510"/>
      <point x="253" y="479"/>
      <point x="225" y="433" type="curve"/>
      <point x="218" y="433" type="line"/>
      <point x="222" y="463"/>
      <point x="224" y="495"/>
      <point x="224" y="526" type="curve" smooth="yes"/>
    </contour>
  </outline>
</glyph>
<glyph name="uni056C" format="2">
  <advance width="319"/>
  <unicode hex="056C"/>
  <note>
uni056C
</note>
  <outline>
    <contour>
      <point x="85" y="-239" type="line"/>
      <point x="359" y="-239" type="line"/>
      <point x="359" y="-134" type="line"/>
      <point x="224" y="-134" type="line"/>
      <point x="224" y="501" type="line"/>
      <point x="85" y="501" type="line"/>
    </contour>
  </outline>
</glyph>
<glyph name="uni056D" format="2">
  <advance width="976"/>
  <unicode hex="056D"/>
  <note>
uni056D
</note>
  <outline>
    <contour>
      <point x="751" y="500" type="line"/>
      <point x="751" y="272" type="line" smooth="yes"/>
      <point x="751" y="160"/>
      <point x="713" y="101"/>
      <point x="642" y="101" type="curve" smooth="yes"/>
      <point x="589" y="101"/>
      <point x="557" y="137"/>
      <point x="557" y="204" type="curve" smooth="yes"/>
      <point x="557" y="325" type="line" smooth="yes"/>
      <point x="557" y="445"/>
      <point x="488" y="510"/>
      <point x="370" y="510" type="curve" smooth="yes"/>
      <point x="296" y="510"/>
      <point x="252" y="479"/>
      <point x="225" y="433" type="curve"/>
      <point x="218" y="433" type="line"/>
      <point x="222" y="463"/>
      <point x="224" y="495"/>
      <point x="224" y="526" type="curve" smooth="yes"/>
      <point x="224" y="760" type="line"/>
      <point x="85" y="760" type="line"/>
      <point x="85" y="-239" type="line"/>
      <point x="224" y="-239" type="line"/>
      <point x="224" y="228" type="line" smooth="yes"/>
      <point x="224" y="340"/>
      <point x="261" y="399"/>
      <point x="332" y="399" type="curve" smooth="yes"/>
      <point x="386" y="399"/>
      <point x="417" y="364"/>
      <point x="417" y="296" type="curve" smooth="yes"/>
      <point x="417" y="176" type="line" smooth="yes"/>
      <point x="417" y="56"/>
      <point x="486" y="-10"/>
      <point x="604" y="-10" type="curve" smooth="yes"/>
      <point x="678" y="-10"/>
      <point x="729" y="21"/>
      <point x="756" y="68" type="curve"/>
      <point x="764" y="68" type="line"/>
      <point x="781" y="0" type="line"/>
      <point x="890" y="0" type="line"/>
      <point x="890" y="500" type="line"/>
    </contour>
  </outline>
</glyph>
<glyph name="uni056E" format="2">
  <advance width="633"/>
  <unicode hex="056E"/>
  <note>
uni056E
</note>
  <outline>
    <contour>
      <point x="337" y="396" type="curve" smooth="yes"/>
      <point x="611" y="396" type="line"/>
      <point x="611" y="501" type="line"/>
      <point x="312" y="501" type="line" smooth="yes"/>
      <point x="152" y="501"/>
      <point x="58" y="381"/>
      <point x="58" y="240" type="curve" smooth="yes"/>
      <point x="58" y="93"/>
      <point x="157" y="-9"/>
      <point x="304" y="-9" type="curve" smooth="yes"/>
      <point x="465" y="-9"/>
      <point x="555" y="94"/>
      <point x="555" y="241" type="curve" smooth="yes"/>
      <point x="555" y="384"/>
      <point x="467" y="550"/>
      <point x="314" y="715" type="curve"/>
      <point x="209" y="637" type="line"/>
      <point x="352" y="492"/>
      <point x="413" y="349"/>
      <point x="413" y="238" type="curve" smooth="yes"/>
      <point x="413" y="151"/>
      <point x="372" y="102"/>
      <point x="305" y="102" type="curve" smooth="yes"/>
      <point x="237" y="102"/>
      <point x="200" y="151"/>
      <point x="200" y="234" type="curve" smooth="yes"/>
      <point x="200" y="329"/>
      <point x="243" y="396"/>
    </contour>
    <contour>
      <point x="209" y="637" type="line"/>
      <point x="292" y="553" type="line"/>
      <point x="453" y="677" type="line"/>
      <point x="382" y="770" type="line"/>
    </contour>
  </outline>
</glyph>
<glyph name="uni056F" format="2">
  <advance width="641"/>
  <unicode hex="056F"/>
  <note>
uni056F
</note>
  <outline>
    <contour>
      <point x="555" y="-239" type="line"/>
      <point x="555" y="499" type="line"/>
      <point x="416" y="499" type="line"/>
      <point x="416" y="272" type="line" smooth="yes"/>
      <point x="416" y="160"/>
      <point x="377" y="101"/>
      <point x="306" y="101" type="curve" smooth="yes"/>
      <point x="252" y="101"/>
      <point x="220" y="137"/>
      <point x="220" y="204" type="curve" smooth="yes"/>
      <point x="220" y="760" type="line"/>
      <point x="81" y="760" type="line"/>
      <point x="81" y="176" type="line" smooth="yes"/>
      <point x="81" y="56"/>
      <point x="150" y="-10"/>
      <point x="268" y="-10" type="curve" smooth="yes"/>
      <point x="342" y="-10"/>
      <point x="389" y="21"/>
      <point x="417" y="68" type="curve"/>
      <point x="424" y="68" type="line"/>
      <point x="418" y="45"/>
      <point x="416" y="23"/>
      <point x="416" y="1" type="curve" smooth="yes"/>
      <point x="416" y="-239" type="line"/>
    </contour>
  </outline>
</glyph>
<glyph name="uni0570" format="2">
  <advance width="602"/>
  <unicode hex="0570"/>
  <note>
uni0570
</note>
  <outline>
    <contour>
      <point x="395" y="0" type="line"/>
      <point x="534" y="0" type="line"/>
      <point x="534" y="140" type="line" smooth="yes"/>
      <point x="534" y="287"/>
      <point x="459" y="359"/>
      <point x="338" y="359" type="curve" smooth="yes"/>
      <point x="274" y="359"/>
      <point x="228" y="330"/>
      <point x="204" y="296" type="curve"/>
      <point x="199" y="297" type="line"/>
      <point x="199" y="558"/>
      <point x="284" y="653"/>
      <point x="370" y="653" type="curve" smooth="yes"/>
      <point x="408" y="653"/>
      <point x="439" y="637"/>
      <point x="469" y="603" type="curve"/>
      <point x="552" y="693" type="line"/>
      <point x="499" y="743"/>
      <point x="443" y="766"/>
      <point x="370" y="766" type="curve" smooth="yes"/>
      <point x="198" y="766"/>
      <point x="60" y="613"/>
      <point x="60" y="274" type="curve" smooth="yes"/>
      <point x="60" y="195" type="line"/>
      <point x="198" y="172" type="line"/>
      <point x="219" y="232"/>
      <point x="255" y="246"/>
      <point x="300" y="246" type="curve" smooth="yes"/>
      <point x="362" y="246"/>
      <point x="395" y="209"/>
      <point x="395" y="117" type="curve" smooth="yes"/>
    </contour>
  </outline>
</glyph>
<glyph name="uni0571" format="2">
  <advance width="666"/>
  <unicode hex="0571"/>
  <note>
uni0571
</note>
  <outline>
    <contour>
      <point x="201" y="760" type="curve"/>
      <point x="83" y="760" type="line"/>
      <point x="83" y="637"/>
      <point x="101" y="615"/>
      <point x="258" y="596" type="curve" smooth="yes"/>
      <point x="375" y="582"/>
      <point x="390" y="572"/>
      <point x="390" y="561" type="curve" smooth="yes"/>
      <point x="390" y="545"/>
      <point x="369" y="524"/>
      <point x="262" y="459" type="curve" smooth="yes"/>
      <point x="96" y="358"/>
      <point x="48" y="286"/>
      <point x="48" y="179" type="curve" smooth="yes"/>
      <point x="48" y="54"/>
      <point x="127" y="-10"/>
      <point x="246" y="-10" type="curve" smooth="yes"/>
      <point x="335" y="-10"/>
      <point x="401" y="23"/>
      <point x="431" y="55" type="curve"/>
      <point x="434" y="55" type="line"/>
      <point x="434" y="158" type="line"/>
      <point x="402" y="124"/>
      <point x="344" y="101"/>
      <point x="284" y="101" type="curve" smooth="yes"/>
      <point x="217" y="101"/>
      <point x="189" y="127"/>
      <point x="189" y="191" type="curve" smooth="yes"/>
      <point x="189" y="253"/>
      <point x="241" y="306"/>
      <point x="344" y="374" type="curve" smooth="yes"/>
      <point x="536" y="501"/>
      <point x="551" y="525"/>
      <point x="551" y="587" type="curve" smooth="yes"/>
      <point x="551" y="641"/>
      <point x="521" y="676"/>
      <point x="346" y="694" type="curve" smooth="yes"/>
      <point x="220" y="707"/>
      <point x="201" y="720"/>
    </contour>
    <contour>
      <point x="317" y="472" type="line"/>
      <point x="449" y="0" type="line"/>
      <point x="583" y="38" type="line"/>
      <point x="451" y="510" type="line"/>
    </contour>
    <contour>
      <point x="449" y="0" type="line"/>
      <point x="648" y="0" type="line"/>
      <point x="648" y="105" type="line"/>
      <point x="551" y="105" type="line"/>
    </contour>
  </outline>
</glyph>
<glyph name="uni0572" format="2">
  <advance width="654"/>
  <unicode hex="0572"/>
  <note>
uni0572
</note>
  <outline>
    <contour>
      <point x="420" y="-239" type="line"/>
      <point x="694" y="-239" type="line"/>
      <point x="694" y="-134" type="line"/>
      <point x="559" y="-134" type="line"/>
      <point x="559" y="325" type="line" smooth="yes"/>
      <point x="559" y="445"/>
      <point x="490" y="510"/>
      <point x="371" y="510" type="curve" smooth="yes"/>
      <point x="297" y="510"/>
      <point x="246" y="479"/>
      <point x="219" y="433" type="curve"/>
      <point x="211" y="433" type="line"/>
      <point x="194" y="500" type="line"/>
      <point x="85" y="500" type="line"/>
      <point x="85" y="0" type="line"/>
      <point x="224" y="0" type="line"/>
      <point x="224" y="228" type="line" smooth="yes"/>
      <point x="224" y="340"/>
      <point x="262" y="399"/>
      <point x="334" y="399" type="curve" smooth="yes"/>
      <point x="388" y="399"/>
      <point x="420" y="364"/>
      <point x="420" y="296" type="curve" smooth="yes"/>
    </contour>
  </outline>
</glyph>
<glyph name="uni0573" format="2">
  <advance width="619"/>
  <unicode hex="0573"/>
  <note>
uni0573
</note>
  <outline>
    <contour>
      <point x="555" y="186" type="line" smooth="yes"/>
      <point x="555" y="427"/>
      <point x="467" y="509"/>
      <point x="17" y="511" type="curve"/>
      <point x="17" y="406" type="line"/>
      <point x="379" y="404"/>
      <point x="415" y="345"/>
      <point x="415" y="206" type="curve" smooth="yes"/>
      <point x="415" y="126"/>
      <point x="377" y="101"/>
      <point x="306" y="101" type="curve" smooth="yes"/>
      <point x="252" y="101"/>
      <point x="219" y="137"/>
      <point x="219" y="237" type="curve" smooth="yes"/>
      <point x="219" y="494"/>
      <point x="321" y="655"/>
      <point x="405" y="655" type="curve" smooth="yes"/>
      <point x="438" y="655"/>
      <point x="469" y="642"/>
      <point x="496" y="617" type="curve"/>
      <point x="569" y="710" type="line"/>
      <point x="522" y="748"/>
      <point x="470" y="766"/>
      <point x="405" y="766" type="curve" smooth="yes"/>
      <point x="246" y="766"/>
      <point x="80" y="581"/>
      <point x="80" y="237" type="curve" smooth="yes"/>
      <point x="80" y="73"/>
      <point x="148" y="-10"/>
      <point x="269" y="-10" type="curve" smooth="yes"/>
      <point x="342" y="-10"/>
      <point x="393" y="20"/>
      <point x="421" y="66" type="curve"/>
      <point x="428" y="66" type="line"/>
      <point x="445" y="0" type="line"/>
      <point x="555" y="0" type="line"/>
    </contour>
  </outline>
</glyph>
<glyph name="uni0574" format="2">
  <advance width="650"/>
  <unicode hex="0574"/>
  <note>
uni0574
</note>
  <outline>
    <contour>
      <point x="555" y="351" type="line" smooth="yes"/>
      <point x="555" y="425"/>
      <point x="542" y="470"/>
      <point x="492" y="526" type="curve" smooth="yes"/>
      <point x="461" y="560"/>
      <point x="438" y="586"/>
      <point x="438" y="616" type="curve" smooth="yes"/>
      <point x="438" y="639"/>
      <point x="454" y="655"/>
      <point x="479" y="655" type="curve" smooth="yes"/>
      <point x="512" y="655"/>
      <point x="526" y="636"/>
      <point x="526" y="599" type="curve"/>
      <point x="656" y="599" type="line"/>
      <point x="656" y="707"/>
      <point x="587" y="766"/>
      <point x="488" y="766" type="curve" smooth="yes"/>
      <point x="354" y="766"/>
      <point x="298" y="692"/>
      <point x="298" y="606" type="curve" smooth="yes"/>
      <point x="298" y="578"/>
      <point x="316" y="534"/>
      <point x="358" y="486" type="curve" smooth="yes"/>
      <point x="403" y="434"/>
      <point x="416" y="394"/>
      <point x="416" y="351" type="curve" smooth="yes"/>
      <point x="416" y="272" type="line" smooth="yes"/>
      <point x="416" y="160"/>
      <point x="377" y="101"/>
      <point x="306" y="101" type="curve" smooth="yes"/>
      <point x="252" y="101"/>
      <point x="220" y="137"/>
      <point x="220" y="204" type="curve" smooth="yes"/>
      <point x="220" y="500" type="line"/>
      <point x="81" y="500" type="line"/>
      <point x="81" y="176" type="line" smooth="yes"/>
      <point x="81" y="56"/>
      <point x="150" y="-10"/>
      <point x="268" y="-10" type="curve" smooth="yes"/>
      <point x="342" y="-10"/>
      <point x="394" y="21"/>
      <point x="421" y="68" type="curve"/>
      <point x="429" y="68" type="line"/>
      <point x="446" y="0" type="line"/>
      <point x="555" y="0" type="line"/>
    </contour>
  </outline>
</glyph>
<glyph name="uni0575" format="2">
  <advance width="313"/>
  <unicode hex="0575"/>
  <note>
uni0575
</note>
  <outline>
    <contour>
      <point x="85" y="167" type="line"/>
      <point x="224" y="167" type="line"/>
      <point x="224" y="500" type="line"/>
      <point x="85" y="500" type="line"/>
    </contour>
    <contour>
      <point x="85" y="167" type="line"/>
      <point x="85" y="108"/>
      <point x="90" y="66"/>
      <point x="105" y="29" type="curve" smooth="yes"/>
      <point x="122" y="-14"/>
      <point x="127" y="-45"/>
      <point x="127" y="-76" type="curve" smooth="yes"/>
      <point x="127" y="-120"/>
      <point x="94" y="-144"/>
      <point x="55" y="-144" type="curve" smooth="yes"/>
      <point x="38" y="-144" type="line"/>
      <point x="38" y="-249" type="line"/>
      <point x="81" y="-249" type="line" smooth="yes"/>
      <point x="193" y="-249"/>
      <point x="267" y="-179"/>
      <point x="267" y="-66" type="curve" smooth="yes"/>
      <point x="267" y="-37"/>
      <point x="260" y="-2"/>
      <point x="246" y="39" type="curve" smooth="yes"/>
      <point x="232" y="79"/>
      <point x="224" y="145"/>
      <point x="224" y="167" type="curve"/>
    </contour>
  </outline>
</glyph>
<glyph name="uni0576" format="2">
  <advance width="637"/>
  <unicode hex="0576"/>
  <note>
uni0576
</note>
  <outline>
    <contour>
      <point x="158" y="495" type="line"/>
      <point x="102" y="408"/>
      <point x="57" y="306"/>
      <point x="57" y="208" type="curve" smooth="yes"/>
      <point x="57" y="70"/>
      <point x="135" y="-10"/>
      <point x="264" y="-10" type="curve" smooth="yes"/>
      <point x="338" y="-10"/>
      <point x="390" y="21"/>
      <point x="417" y="68" type="curve"/>
      <point x="425" y="68" type="line"/>
      <point x="442" y="0" type="line"/>
      <point x="551" y="0" type="line"/>
      <point x="551" y="500" type="line"/>
      <point x="412" y="500" type="line"/>
      <point x="412" y="272" type="line" smooth="yes"/>
      <point x="412" y="160"/>
      <point x="370" y="101"/>
      <point x="298" y="101" type="curve" smooth="yes"/>
      <point x="236" y="101"/>
      <point x="199" y="139"/>
      <point x="199" y="234" type="curve" smooth="yes"/>
      <point x="199" y="331"/>
      <point x="234" y="439"/>
      <point x="288" y="541" type="curve"/>
      <point x="288" y="557" type="line"/>
    </contour>
    <contour>
      <point x="288" y="557" type="line"/>
      <point x="245" y="576" type="line" smooth="yes"/>
      <point x="201" y="595"/>
      <point x="189" y="611"/>
      <point x="189" y="636" type="curve" smooth="yes"/>
      <point x="189" y="650"/>
      <point x="192" y="665"/>
      <point x="198" y="677" type="curve" smooth="yes"/>
      <point x="219" y="719" type="line"/>
      <point x="103" y="760" type="line"/>
      <point x="72" y="690" type="line" smooth="yes"/>
      <point x="61" y="665"/>
      <point x="57" y="642"/>
      <point x="57" y="611" type="curve" smooth="yes"/>
      <point x="57" y="571"/>
      <point x="82" y="533"/>
      <point x="124" y="511" type="curve" smooth="yes"/>
      <point x="160" y="492" type="line"/>
    </contour>
  </outline>
</glyph>
<glyph name="uni0577" format="2">
  <advance width="441"/>
  <unicode hex="0577"/>
  <note>
uni0577
</note>
  <outline>
    <contour>
      <point x="416" y="-239" type="line"/>
      <point x="416" y="-134" type="line"/>
      <point x="211" y="-134" type="line" smooth="yes"/>
      <point x="194" y="-134"/>
      <point x="190" y="-129"/>
      <point x="190" y="-119" type="curve" smooth="yes"/>
      <point x="190" y="-107"/>
      <point x="199" y="-91"/>
      <point x="211" y="-76" type="curve" smooth="yes"/>
      <point x="311" y="48" type="line" smooth="yes"/>
      <point x="373" y="124"/>
      <point x="417" y="203"/>
      <point x="417" y="302" type="curve" smooth="yes"/>
      <point x="417" y="428"/>
      <point x="333" y="510"/>
      <point x="194" y="510" type="curve" smooth="yes"/>
      <point x="117" y="510"/>
      <point x="58" y="495"/>
      <point x="7" y="470" type="curve"/>
      <point x="37" y="366" type="line"/>
      <point x="83" y="388"/>
      <point x="132" y="399"/>
      <point x="177" y="399" type="curve" smooth="yes"/>
      <point x="241" y="399"/>
      <point x="275" y="363"/>
      <point x="275" y="291" type="curve" smooth="yes"/>
      <point x="275" y="232"/>
      <point x="245" y="160"/>
      <point x="197" y="98" type="curve" smooth="yes"/>
      <point x="58" y="-84" type="line" smooth="yes"/>
      <point x="26" y="-126"/>
      <point x="16" y="-150"/>
      <point x="16" y="-179" type="curve" smooth="yes"/>
      <point x="16" y="-220"/>
      <point x="35" y="-239"/>
      <point x="89" y="-239" type="curve" smooth="yes"/>
    </contour>
  </outline>
</glyph>
<glyph name="uni0579" format="2">
  <advance width="381"/>
  <unicode hex="0579"/>
  <note>
uni0579
</note>
  <outline>
    <contour>
      <point x="-19" y="-179" type="curve" smooth="yes"/>
      <point x="-19" y="-220"/>
      <point x="1" y="-239"/>
      <point x="54" y="-239" type="curve" smooth="yes"/>
      <point x="355" y="-239" type="line"/>
      <point x="355" y="-134" type="line"/>
      <point x="174" y="-134" type="line" smooth="yes"/>
      <point x="158" y="-134"/>
      <point x="149" y="-129"/>
      <point x="149" y="-119" type="curve" smooth="yes"/>
      <point x="149" y="-107"/>
      <point x="157" y="-88"/>
      <point x="166" y="-70" type="curve" smooth="yes"/>
      <point x="363" y="316" type="line"/>
      <point x="245" y="371" type="line"/>
      <point x="14" y="-83" type="line" smooth="yes"/>
      <point x="-10" y="-130"/>
      <point x="-19" y="-150"/>
    </contour>
    <contour>
      <point x="363" y="316" type="line"/>
      <point x="245" y="378" type="line" smooth="yes"/>
      <point x="218" y="392"/>
      <point x="197" y="412"/>
      <point x="197" y="433" type="curve" smooth="yes"/>
      <point x="197" y="460"/>
      <point x="205" y="485"/>
      <point x="214" y="500" type="curve"/>
      <point x="80" y="500" type="line"/>
      <point x="65" y="478"/>
      <point x="56" y="447"/>
      <point x="56" y="416" type="curve" smooth="yes"/>
      <point x="56" y="378"/>
      <point x="75" y="336"/>
      <point x="121" y="308" type="curve" smooth="yes"/>
      <point x="198" y="261" type="line"/>
    </contour>
  </outline>
</glyph>
<glyph name="uni057A" format="2">
  <advance width="973"/>
  <unicode hex="057A"/>
  <note>
uni057A
</note>
  <outline>
    <contour>
      <point x="748" y="-239" type="line"/>
      <point x="887" y="-239" type="line"/>
      <point x="887" y="500" type="line"/>
      <point x="748" y="500" type="line"/>
      <point x="748" y="272" type="line" smooth="yes"/>
      <point x="748" y="160"/>
      <point x="708" y="102"/>
      <point x="640" y="102" type="curve" smooth="yes"/>
      <point x="589" y="102"/>
      <point x="554" y="138"/>
      <point x="554" y="205" type="curve" smooth="yes"/>
      <point x="554" y="500" type="line"/>
      <point x="414" y="500" type="line"/>
      <point x="414" y="272" type="line" smooth="yes"/>
      <point x="414" y="160"/>
      <point x="375" y="102"/>
      <point x="305" y="102" type="curve" smooth="yes"/>
      <point x="254" y="102"/>
      <point x="220" y="138"/>
      <point x="220" y="205" type="curve" smooth="yes"/>
      <point x="220" y="500" type="line"/>
      <point x="81" y="500" type="line"/>
      <point x="81" y="174" type="line" smooth="yes"/>
      <point x="81" y="55"/>
      <point x="148" y="-9"/>
      <point x="267" y="-9" type="curve" smooth="yes"/>
      <point x="337" y="-9"/>
      <point x="404" y="24"/>
      <point x="431" y="71" type="curve"/>
      <point x="439" y="71" type="line"/>
      <point x="470" y="18"/>
      <point x="526" y="-9"/>
      <point x="602" y="-9" type="curve" smooth="yes"/>
      <point x="677" y="-9"/>
      <point x="722" y="20"/>
      <point x="750" y="64" type="curve"/>
      <point x="757" y="64" type="line"/>
      <point x="751" y="31"/>
      <point x="748" y="7"/>
      <point x="748" y="-27" type="curve" smooth="yes"/>
    </contour>
  </outline>
</glyph>
<glyph name="uni057B" format="2">
  <advance width="532"/>
  <unicode hex="057B"/>
  <note>
uni057B
</note>
  <outline>
    <contour>
      <point x="266" y="-134" type="line" smooth="yes"/>
      <point x="249" y="-134"/>
      <point x="245" y="-129"/>
      <point x="245" y="-119" type="curve" smooth="yes"/>
      <point x="245" y="-107"/>
      <point x="253" y="-91"/>
      <point x="266" y="-76" type="curve" smooth="yes"/>
      <point x="339" y="6" type="line" smooth="yes"/>
      <point x="441" y="120"/>
      <point x="508" y="202"/>
      <point x="508" y="299" type="curve" smooth="yes"/>
      <point x="508" y="428"/>
      <point x="424" y="510"/>
      <point x="274" y="510" type="curve" smooth="yes"/>
      <point x="131" y="510"/>
      <point x="43" y="423"/>
      <point x="43" y="290" type="curve" smooth="yes"/>
      <point x="43" y="220"/>
      <point x="72" y="171"/>
      <point x="122" y="135" type="curve" smooth="yes"/>
      <point x="187" y="89"/>
      <point x="209" y="59"/>
      <point x="219" y="25" type="curve"/>
      <point x="292" y="101" type="line"/>
      <point x="281" y="138"/>
      <point x="262" y="169"/>
      <point x="230" y="197" type="curve" smooth="yes"/>
      <point x="199" y="224"/>
      <point x="182" y="255"/>
      <point x="182" y="288" type="curve" smooth="yes"/>
      <point x="182" y="363"/>
      <point x="217" y="399"/>
      <point x="274" y="399" type="curve" smooth="yes"/>
      <point x="332" y="399"/>
      <point x="366" y="363"/>
      <point x="366" y="288" type="curve" smooth="yes"/>
      <point x="366" y="231"/>
      <point x="311" y="158"/>
      <point x="236" y="68" type="curve" smooth="yes"/>
      <point x="108" y="-84" type="line" smooth="yes"/>
      <point x="73" y="-125"/>
      <point x="65" y="-150"/>
      <point x="65" y="-179" type="curve" smooth="yes"/>
      <point x="65" y="-220"/>
      <point x="85" y="-239"/>
      <point x="138" y="-239" type="curve" smooth="yes"/>
      <point x="490" y="-239" type="line"/>
      <point x="490" y="-134" type="line"/>
    </contour>
  </outline>
</glyph>
<glyph name="uni057C" format="2">
  <advance width="673"/>
  <unicode hex="057C"/>
  <note>
uni057C
</note>
  <outline>
    <contour>
      <point x="508" y="105" type="line"/>
      <point x="553" y="161"/>
      <point x="579" y="228"/>
      <point x="579" y="316" type="curve" smooth="yes"/>
      <point x="579" y="434"/>
      <point x="501" y="510"/>
      <point x="372" y="510" type="curve" smooth="yes"/>
      <point x="298" y="510"/>
      <point x="246" y="479"/>
      <point x="219" y="433" type="curve"/>
      <point x="211" y="433" type="line"/>
      <point x="194" y="500" type="line"/>
      <point x="85" y="500" type="line"/>
      <point x="85" y="0" type="line"/>
      <point x="224" y="0" type="line"/>
      <point x="224" y="228" type="line" smooth="yes"/>
      <point x="224" y="340"/>
      <point x="266" y="399"/>
      <point x="338" y="399" type="curve" smooth="yes"/>
      <point x="400" y="399"/>
      <point x="437" y="361"/>
      <point x="437" y="290" type="curve" smooth="yes"/>
      <point x="437" y="215"/>
      <point x="420" y="159"/>
      <point x="362" y="93" type="curve"/>
      <point x="362" y="0" type="line"/>
      <point x="657" y="0" type="line"/>
      <point x="657" y="105" type="line"/>
    </contour>
  </outline>
</glyph>
<glyph name="uni057D" format="2">
  <advance width="641"/>
  <unicode hex="057D"/>
  <note>
uni057D
</note>
  <outline>
    <contour>
      <point x="555" y="500" type="line"/>
      <point x="416" y="500" type="line"/>
      <point x="416" y="272" type="line" smooth="yes"/>
      <point x="416" y="160"/>
      <point x="377" y="101"/>
      <point x="306" y="101" type="curve" smooth="yes"/>
      <point x="252" y="101"/>
      <point x="220" y="137"/>
      <point x="220" y="204" type="curve" smooth="yes"/>
      <point x="220" y="500" type="line"/>
      <point x="81" y="500" type="line"/>
      <point x="81" y="176" type="line" smooth="yes"/>
      <point x="81" y="56"/>
      <point x="150" y="-10"/>
      <point x="268" y="-10" type="curve" smooth="yes"/>
      <point x="342" y="-10"/>
      <point x="394" y="21"/>
      <point x="421" y="68" type="curve"/>
      <point x="429" y="68" type="line"/>
      <point x="446" y="0" type="line"/>
      <point x="555" y="0" type="line"/>
    </contour>
  </outline>
</glyph>
<glyph name="uni057F" format="2">
  <advance width="971"/>
  <unicode hex="057F"/>
  <note>
uni057F
</note>
  <outline>
    <contour>
      <point x="703" y="510" type="curve" smooth="yes"/>
      <point x="629" y="510"/>
      <point x="577" y="479"/>
      <point x="549" y="433" type="curve"/>
      <point x="542" y="433" type="line"/>
      <point x="525" y="500" type="line"/>
      <point x="416" y="500" type="line"/>
      <point x="416" y="272" type="line" smooth="yes"/>
      <point x="416" y="160"/>
      <point x="377" y="101"/>
      <point x="306" y="101" type="curve" smooth="yes"/>
      <point x="252" y="101"/>
      <point x="220" y="137"/>
      <point x="220" y="204" type="curve" smooth="yes"/>
      <point x="220" y="500" type="line"/>
      <point x="81" y="500" type="line"/>
      <point x="81" y="176" type="line" smooth="yes"/>
      <point x="81" y="56"/>
      <point x="150" y="-10"/>
      <point x="268" y="-10" type="curve" smooth="yes"/>
      <point x="342" y="-10"/>
      <point x="394" y="21"/>
      <point x="421" y="68" type="curve"/>
      <point x="429" y="68" type="line"/>
      <point x="446" y="0" type="line"/>
      <point x="555" y="0" type="line"/>
      <point x="555" y="228" type="line" smooth="yes"/>
      <point x="555" y="340"/>
      <point x="593" y="399"/>
      <point x="665" y="399" type="curve" smooth="yes"/>
      <point x="718" y="399"/>
      <point x="750" y="364"/>
      <point x="750" y="296" type="curve" smooth="yes"/>
      <point x="750" y="0" type="line"/>
      <point x="890" y="0" type="line"/>
      <point x="890" y="325" type="line" smooth="yes"/>
      <point x="890" y="445"/>
      <point x="821" y="510"/>
    </contour>
  </outline>
</glyph>
<glyph name="uni0581" format="2">
  <advance width="635"/>
  <unicode hex="0581"/>
  <note>
uni0581
</note>
  <outline>
    <contour>
      <point x="272" y="-249" type="curve" smooth="yes"/>
      <point x="469" y="-249"/>
      <point x="549" y="-170"/>
      <point x="549" y="-12" type="curve" smooth="yes"/>
      <point x="549" y="500" type="line"/>
      <point x="440" y="500" type="line"/>
      <point x="423" y="434" type="line"/>
      <point x="416" y="434" type="line"/>
      <point x="383" y="484"/>
      <point x="333" y="510"/>
      <point x="267" y="510" type="curve" smooth="yes"/>
      <point x="137" y="510"/>
      <point x="58" y="412"/>
      <point x="58" y="249" type="curve" smooth="yes"/>
      <point x="58" y="91"/>
      <point x="135" y="-9"/>
      <point x="263" y="-9" type="curve" smooth="yes"/>
      <point x="329" y="-9"/>
      <point x="378" y="17"/>
      <point x="408" y="68" type="curve"/>
      <point x="417" y="68" type="line"/>
      <point x="412" y="29"/>
      <point x="410" y="0"/>
      <point x="410" y="-27" type="curve" smooth="yes"/>
      <point x="410" y="-48" type="line" smooth="yes"/>
      <point x="410" y="-109"/>
      <point x="371" y="-144"/>
      <point x="275" y="-144" type="curve" smooth="yes"/>
      <point x="208" y="-144"/>
      <point x="155" y="-131"/>
      <point x="107" y="-111" type="curve"/>
      <point x="107" y="-219" type="line"/>
      <point x="163" y="-239"/>
      <point x="213" y="-249"/>
    </contour>
    <contour>
      <point x="302" y="102" type="curve" smooth="yes"/>
      <point x="234" y="102"/>
      <point x="200" y="150"/>
      <point x="200" y="248" type="curve" smooth="yes"/>
      <point x="200" y="345"/>
      <point x="237" y="399"/>
      <point x="301" y="399" type="curve" smooth="yes"/>
      <point x="379" y="399"/>
      <point x="410" y="349"/>
      <point x="410" y="256" type="curve" smooth="yes"/>
      <point x="410" y="248" type="line" smooth="yes"/>
      <point x="410" y="153"/>
      <point x="375" y="102"/>
    </contour>
  </outline>
</glyph>
<glyph name="uni0582" format="2">
  <advance width="396"/>
  <unicode hex="0582"/>
  <note>
uni0582
</note>
  <outline>
    <contour>
      <point x="85" y="0" type="line"/>
      <point x="379" y="0" type="line"/>
      <point x="379" y="105" type="line"/>
      <point x="224" y="105" type="line"/>
      <point x="224" y="500" type="line"/>
      <point x="85" y="500" type="line"/>
    </contour>
  </outline>
</glyph>
<glyph name="uni0583" format="2">
  <advance width="971"/>
  <unicode hex="0583"/>
  <note>
uni0583
</note>
  <outline>
    <contour>
      <point x="703" y="510" type="curve" smooth="yes"/>
      <point x="629" y="510"/>
      <point x="583" y="479"/>
      <point x="556" y="433" type="curve"/>
      <point x="548" y="433" type="line"/>
      <point x="553" y="464"/>
      <point x="555" y="497"/>
      <point x="555" y="529" type="curve" smooth="yes"/>
      <point x="555" y="760" type="line"/>
      <point x="416" y="760" type="line"/>
      <point x="416" y="272" type="line" smooth="yes"/>
      <point x="416" y="160"/>
      <point x="377" y="101"/>
      <point x="306" y="101" type="curve" smooth="yes"/>
      <point x="252" y="101"/>
      <point x="220" y="137"/>
      <point x="220" y="204" type="curve" smooth="yes"/>
      <point x="220" y="500" type="line"/>
      <point x="81" y="500" type="line"/>
      <point x="81" y="176" type="line" smooth="yes"/>
      <point x="81" y="56"/>
      <point x="150" y="-10"/>
      <point x="268" y="-10" type="curve" smooth="yes"/>
      <point x="342" y="-10"/>
      <point x="389" y="22"/>
      <point x="417" y="68" type="curve"/>
      <point x="424" y="68" type="line"/>
      <point x="419" y="45"/>
      <point x="416" y="23"/>
      <point x="416" y="1" type="curve" smooth="yes"/>
      <point x="416" y="-239" type="line"/>
      <point x="555" y="-239" type="line"/>
      <point x="555" y="228" type="line" smooth="yes"/>
      <point x="555" y="340"/>
      <point x="593" y="399"/>
      <point x="665" y="399" type="curve" smooth="yes"/>
      <point x="718" y="399"/>
      <point x="750" y="364"/>
      <point x="750" y="296" type="curve" smooth="yes"/>
      <point x="750" y="0" type="line"/>
      <point x="890" y="0" type="line"/>
      <point x="890" y="325" type="line" smooth="yes"/>
      <point x="890" y="445"/>
      <point x="821" y="510"/>
    </contour>
  </outline>
</glyph>
<glyph name="uni0584" format="2">
  <advance width="635"/>
  <unicode hex="0584"/>
  <note>
uni0584
</note>
  <outline>
    <contour>
      <point x="85" y="-239" type="line"/>
      <point x="224" y="-239" type="line"/>
      <point x="224" y="-155" type="line"/>
      <point x="561" y="-155" type="line"/>
      <point x="561" y="-50" type="line"/>
      <point x="224" y="-50" type="line"/>
      <point x="224" y="-30" type="line" smooth="yes"/>
      <point x="224" y="-2"/>
      <point x="222" y="28"/>
      <point x="218" y="67" type="curve"/>
      <point x="226" y="67" type="line"/>
      <point x="256" y="18"/>
      <point x="304" y="-9"/>
      <point x="370" y="-9" type="curve" smooth="yes"/>
      <point x="499" y="-9"/>
      <point x="576" y="94"/>
      <point x="576" y="250" type="curve" smooth="yes"/>
      <point x="576" y="411"/>
      <point x="498" y="510"/>
      <point x="368" y="510" type="curve" smooth="yes"/>
      <point x="301" y="510"/>
      <point x="251" y="483"/>
      <point x="218" y="432" type="curve"/>
      <point x="211" y="432" type="line"/>
      <point x="194" y="500" type="line"/>
      <point x="85" y="500" type="line"/>
      <point x="85" y="-50" type="line"/>
      <point x="15" y="-50" type="line"/>
      <point x="15" y="-155" type="line"/>
      <point x="85" y="-155" type="line"/>
    </contour>
    <contour>
      <point x="332" y="102" type="curve" smooth="yes"/>
      <point x="262" y="102"/>
      <point x="225" y="147"/>
      <point x="225" y="247" type="curve" smooth="yes"/>
      <point x="225" y="255" type="line" smooth="yes"/>
      <point x="225" y="349"/>
      <point x="258" y="399"/>
      <point x="335" y="399" type="curve" smooth="yes"/>
      <point x="398" y="399"/>
      <point x="435" y="345"/>
      <point x="435" y="249" type="curve" smooth="yes"/>
      <point x="435" y="152"/>
      <point x="401" y="102"/>
    </contour>
  </outline>
</glyph>
<glyph name="uni0585" format="2">
  <advance width="614"/>
  <unicode hex="0585"/>
  <note>
uni0585
</note>
  <anchor x="307" y="492" name="top"/>
  <outline>
    <contour>
      <point x="310" y="-9" type="curve" smooth="yes"/>
      <point x="459" y="-9"/>
      <point x="556" y="96"/>
      <point x="556" y="250" type="curve" smooth="yes"/>
      <point x="556" y="403"/>
      <point x="458" y="510"/>
      <point x="308" y="510" type="curve" smooth="yes"/>
      <point x="158" y="510"/>
      <point x="58" y="404"/>
      <point x="58" y="250" type="curve" smooth="yes"/>
      <point x="58" y="97"/>
      <point x="158" y="-9"/>
    </contour>
    <contour>
      <point x="308" y="102" type="curve" smooth="yes"/>
      <point x="235" y="102"/>
      <point x="200" y="158"/>
      <point x="200" y="251" type="curve" smooth="yes"/>
      <point x="200" y="348"/>
      <point x="235" y="399"/>
      <point x="307" y="399" type="curve" smooth="yes"/>
      <point x="380" y="399"/>
      <point x="414" y="347"/>
      <point x="414" y="251" type="curve" smooth="yes"/>
      <point x="414" y="158"/>
      <point x="381" y="102"/>
    </contour>
  </outline>
</glyph>
<glyph name="uni0586" format="2">
  <advance width="747"/>
  <unicode hex="0586"/>
  <note>
uni0586
</note>
  <outline>
    <contour>
      <point x="434" y="413" type="curve"/>
      <point x="434" y="714" type="line"/>
      <point x="355" y="714" type="line" smooth="yes"/>
      <point x="164" y="714"/>
      <point x="49" y="641"/>
      <point x="49" y="518" type="curve" smooth="yes"/>
      <point x="49" y="406"/>
      <point x="130" y="347"/>
      <point x="299" y="320" type="curve"/>
      <point x="299" y="96" type="line"/>
      <point x="233" y="98"/>
      <point x="134" y="128"/>
      <point x="40" y="166" type="curve"/>
      <point x="40" y="49" type="line"/>
      <point x="114" y="20"/>
      <point x="213" y="-2"/>
      <point x="299" y="-9" type="curve"/>
      <point x="299" y="-239" type="line"/>
      <point x="434" y="-239" type="line"/>
      <point x="434" y="-9" type="line"/>
      <point x="600" y="-1"/>
      <point x="703" y="79"/>
      <point x="703" y="203" type="curve" smooth="yes"/>
      <point x="703" y="324"/>
      <point x="624" y="392"/>
    </contour>
    <contour>
      <point x="188" y="519" type="curve" smooth="yes"/>
      <point x="188" y="573"/>
      <point x="236" y="609"/>
      <point x="299" y="609" type="curve"/>
      <point x="299" y="425" type="line"/>
      <point x="229" y="438"/>
      <point x="188" y="472"/>
    </contour>
    <contour>
      <point x="434" y="96" type="curve"/>
      <point x="434" y="308" type="line"/>
      <point x="519" y="301"/>
      <point x="564" y="258"/>
      <point x="564" y="202" type="curve" smooth="yes"/>
      <point x="564" y="139"/>
      <point x="527" y="98"/>
    </contour>
  </outline>
</glyph>
<glyph name="uni0587" format="2">
  <advance width="697"/>
  <unicode hex="0587"/>
  <note>
uni0587
</note>
  <outline>
    <contour>
      <point x="268" y="-10" type="curve" smooth="yes"/>
      <point x="343" y="-10"/>
      <point x="389" y="21"/>
      <point x="417" y="68" type="curve"/>
      <point x="419" y="68" type="line"/>
      <point x="435" y="0" type="line"/>
      <point x="692" y="0" type="line"/>
      <point x="692" y="105" type="line"/>
      <point x="555" y="105" type="line"/>
      <point x="555" y="500" type="line"/>
      <point x="416" y="500" type="line"/>
      <point x="416" y="272" type="line" smooth="yes"/>
      <point x="416" y="160"/>
      <point x="378" y="101"/>
      <point x="306" y="101" type="curve" smooth="yes"/>
      <point x="252" y="101"/>
      <point x="220" y="137"/>
      <point x="220" y="204" type="curve" smooth="yes"/>
      <point x="220" y="760" type="line"/>
      <point x="81" y="760" type="line"/>
      <point x="81" y="176" type="line" smooth="yes"/>
      <point x="81" y="56"/>
      <point x="149" y="-10"/>
    </contour>
  </outline>
</glyph>
<glyph name="uni0588" format="2">
  <advance width="349"/>
  <unicode hex="0588"/>
  <note>
uni0575
</note>
  <outline>
    <contour>
      <point x="105" y="167" type="line"/>
      <point x="244" y="167" type="line"/>
      <point x="244" y="500" type="line"/>
      <point x="105" y="500" type="line"/>
    </contour>
    <contour>
      <point x="105" y="167" type="line"/>
      <point x="105" y="108"/>
      <point x="110" y="66"/>
      <point x="125" y="29" type="curve" smooth="yes"/>
      <point x="142" y="-14"/>
      <point x="147" y="-45"/>
      <point x="147" y="-76" type="curve" smooth="yes"/>
      <point x="147" y="-120"/>
      <point x="114" y="-144"/>
      <point x="75" y="-144" type="curve" smooth="yes"/>
      <point x="58" y="-144" type="line"/>
      <point x="58" y="-249" type="line"/>
      <point x="101" y="-249" type="line" smooth="yes"/>
      <point x="213" y="-249"/>
      <point x="287" y="-179"/>
      <point x="287" y="-66" type="curve" smooth="yes"/>
      <point x="287" y="-37"/>
      <point x="280" y="-2"/>
      <point x="266" y="39" type="curve" smooth="yes"/>
      <point x="252" y="79"/>
      <point x="248" y="144"/>
      <point x="244" y="167" type="curve"/>
    </contour>
    <contour>
      <point x="5" y="172" type="line"/>
      <point x="5" y="67" type="line"/>
      <point x="344" y="67" type="line"/>
      <point x="344" y="172" type="line"/>
    </contour>
  </outline>
</glyph>
<glyph name="uni0589" format="2">
  <advance width="280"/>
  <unicode hex="0589"/>
  <note>
uni0589
</note>
  <outline>
    <contour>
      <point x="59" y="66" type="curve" smooth="yes"/>
      <point x="59" y="11"/>
      <point x="94" y="-13"/>
      <point x="140" y="-13" type="curve" smooth="yes"/>
      <point x="184" y="-13"/>
      <point x="220" y="11"/>
      <point x="220" y="66" type="curve" smooth="yes"/>
      <point x="220" y="124"/>
      <point x="184" y="145"/>
      <point x="140" y="145" type="curve" smooth="yes"/>
      <point x="94" y="145"/>
      <point x="59" y="124"/>
    </contour>
    <contour>
      <point x="59" y="431" type="curve" smooth="yes"/>
      <point x="59" y="375"/>
      <point x="94" y="352"/>
      <point x="140" y="352" type="curve" smooth="yes"/>
      <point x="184" y="352"/>
      <point x="220" y="375"/>
      <point x="220" y="431" type="curve" smooth="yes"/>
      <point x="220" y="488"/>
      <point x="184" y="510"/>
      <point x="140" y="510" type="curve" smooth="yes"/>
      <point x="94" y="510"/>
      <point x="59" y="488"/>
    </contour>
  </outline>
</glyph>
<glyph name="uni058A" format="2">
  <advance width="431"/>
  <unicode hex="058A"/>
  <note>
uni058A
</note>
  <outline>
    <contour>
      <point x="190" y="184" type="curve" smooth="yes"/>
      <point x="258" y="184"/>
      <point x="338" y="198"/>
      <point x="392" y="221" type="curve"/>
      <point x="392" y="314" type="line"/>
      <point x="326" y="300"/>
      <point x="271" y="295"/>
      <point x="224" y="295" type="curve" smooth="yes"/>
      <point x="169" y="295"/>
      <point x="148" y="310"/>
      <point x="148" y="361" type="curve"/>
      <point x="39" y="361" type="line"/>
      <point x="39" y="239"/>
      <point x="85" y="184"/>
    </contour>
  </outline>
</glyph>
<glyph name="uni058D" format="2">
  <advance width="817"/>
  <unicode hex="058D"/>
  <outline>
    <contour>
      <point x="408" y="-10" type="curve" smooth="yes"/>
      <point x="460" y="-10"/>
      <point x="507" y="9"/>
      <point x="544" y="41" type="curve"/>
      <point x="649" y="50"/>
      <point x="726" y="128"/>
      <point x="730" y="227" type="curve"/>
      <point x="763" y="264"/>
      <point x="781" y="309"/>
      <point x="781" y="357" type="curve" smooth="yes"/>
      <point x="781" y="407"/>
      <point x="761" y="453"/>
      <point x="729" y="488" type="curve"/>
      <point x="725" y="589"/>
      <point x="646" y="665"/>
      <point x="544" y="672" type="curve"/>
      <point x="508" y="705"/>
      <point x="459" y="724"/>
      <point x="408" y="724" type="curve" smooth="yes"/>
      <point x="358" y="724"/>
      <point x="310" y="705"/>
      <point x="274" y="673" type="curve"/>
      <point x="167" y="664"/>
      <point x="91" y="586"/>
      <point x="87" y="487" type="curve"/>
      <point x="54" y="449"/>
      <point x="36" y="404"/>
      <point x="36" y="357" type="curve" smooth="yes"/>
      <point x="36" y="307"/>
      <point x="56" y="261"/>
      <point x="88" y="226" type="curve"/>
      <point x="92" y="127"/>
      <point x="170" y="49"/>
      <point x="272" y="42" type="curve"/>
      <point x="309" y="9"/>
      <point x="358" y="-10"/>
    </contour>
    <contour>
      <point x="589" y="102" type="curve"/>
      <point x="602" y="127"/>
      <point x="610" y="156"/>
      <point x="610" y="186" type="curve" smooth="yes"/>
      <point x="610" y="272"/>
      <point x="551" y="345"/>
      <point x="471" y="371" type="curve"/>
      <point x="489" y="380"/>
      <point x="509" y="384"/>
      <point x="528" y="384" type="curve" smooth="yes"/>
      <point x="607" y="384"/>
      <point x="672" y="316"/>
      <point x="672" y="234" type="curve" smooth="yes"/>
      <point x="672" y="174"/>
      <point x="636" y="121"/>
    </contour>
    <contour>
      <point x="409" y="36" type="curve" smooth="yes"/>
      <point x="388" y="36"/>
      <point x="369" y="41"/>
      <point x="350" y="51" type="curve"/>
      <point x="434" y="76"/>
      <point x="487" y="152"/>
      <point x="487" y="235" type="curve" smooth="yes"/>
      <point x="487" y="264"/>
      <point x="481" y="293"/>
      <point x="467" y="320" type="curve"/>
      <point x="516" y="296"/>
      <point x="550" y="244"/>
      <point x="550" y="186" type="curve" smooth="yes"/>
      <point x="550" y="103"/>
      <point x="487" y="36"/>
    </contour>
    <contour>
      <point x="716" y="308" type="curve"/>
      <point x="685" y="385"/>
      <point x="611" y="431"/>
      <point x="532" y="431" type="curve" smooth="yes"/>
      <point x="503" y="431"/>
      <point x="476" y="426"/>
      <point x="449" y="414" type="curve"/>
      <point x="470" y="467"/>
      <point x="521" y="503"/>
      <point x="580" y="503" type="curve" smooth="yes"/>
      <point x="660" y="503"/>
      <point x="724" y="439"/>
      <point x="724" y="357" type="curve" smooth="yes"/>
      <point x="724" y="341"/>
      <point x="721" y="323"/>
    </contour>
    <contour>
      <point x="285" y="88" type="curve" smooth="yes"/>
      <point x="229" y="88"/>
      <point x="177" y="125"/>
      <point x="156" y="178" type="curve"/>
      <point x="180" y="167"/>
      <point x="208" y="161"/>
      <point x="237" y="161" type="curve" smooth="yes"/>
      <point x="320" y="161"/>
      <point x="393" y="212"/>
      <point x="422" y="283" type="curve"/>
      <point x="427" y="269"/>
      <point x="430" y="253"/>
      <point x="430" y="238" type="curve" smooth="yes"/>
      <point x="430" y="153"/>
      <point x="363" y="88"/>
    </contour>
    <contour>
      <point x="396" y="431" type="curve"/>
      <point x="390" y="445"/>
      <point x="388" y="461"/>
      <point x="388" y="476" type="curve" smooth="yes"/>
      <point x="388" y="561"/>
      <point x="455" y="626"/>
      <point x="533" y="626" type="curve" smooth="yes"/>
      <point x="589" y="626"/>
      <point x="642" y="589"/>
      <point x="663" y="536" type="curve"/>
      <point x="637" y="547"/>
      <point x="610" y="553"/>
      <point x="581" y="553" type="curve" smooth="yes"/>
      <point x="498" y="553"/>
      <point x="425" y="502"/>
    </contour>
    <contour>
      <point x="238" y="211" type="curve" smooth="yes"/>
      <point x="158" y="211"/>
      <point x="94" y="275"/>
      <point x="94" y="357" type="curve" smooth="yes"/>
      <point x="94" y="373"/>
      <point x="97" y="391"/>
      <point x="102" y="406" type="curve"/>
      <point x="133" y="329"/>
      <point x="207" y="283"/>
      <point x="286" y="283" type="curve" smooth="yes"/>
      <point x="315" y="283"/>
      <point x="342" y="288"/>
      <point x="369" y="300" type="curve"/>
      <point x="348" y="247"/>
      <point x="297" y="211"/>
    </contour>
    <contour>
      <point x="350" y="394" type="curve"/>
      <point x="301" y="418"/>
      <point x="267" y="470"/>
      <point x="267" y="528" type="curve" smooth="yes"/>
      <point x="267" y="611"/>
      <point x="330" y="678"/>
      <point x="409" y="678" type="curve" smooth="yes"/>
      <point x="430" y="678"/>
      <point x="450" y="673"/>
      <point x="467" y="663" type="curve"/>
      <point x="383" y="638"/>
      <point x="330" y="562"/>
      <point x="330" y="479" type="curve" smooth="yes"/>
      <point x="330" y="450"/>
      <point x="336" y="421"/>
    </contour>
    <contour>
      <point x="290" y="330" type="curve" smooth="yes"/>
      <point x="210" y="330"/>
      <point x="145" y="398"/>
      <point x="145" y="480" type="curve" smooth="yes"/>
      <point x="145" y="537"/>
      <point x="177" y="588"/>
      <point x="228" y="613" type="curve"/>
      <point x="215" y="588"/>
      <point x="208" y="559"/>
      <point x="208" y="528" type="curve" smooth="yes"/>
      <point x="208" y="442"/>
      <point x="267" y="369"/>
      <point x="346" y="343" type="curve"/>
      <point x="329" y="334"/>
      <point x="309" y="330"/>
    </contour>
  </outline>
</glyph>
<glyph name="uni058E" format="2">
  <advance width="818"/>
  <unicode hex="058E"/>
  <outline>
    <contour>
      <point x="408" y="-10" type="curve" smooth="yes"/>
      <point x="458" y="-10"/>
      <point x="508" y="9"/>
      <point x="545" y="42" type="curve"/>
      <point x="647" y="49"/>
      <point x="725" y="127"/>
      <point x="729" y="226" type="curve"/>
      <point x="761" y="261"/>
      <point x="781" y="307"/>
      <point x="781" y="357" type="curve" smooth="yes"/>
      <point x="781" y="404"/>
      <point x="763" y="449"/>
      <point x="730" y="487" type="curve"/>
      <point x="726" y="586"/>
      <point x="650" y="664"/>
      <point x="543" y="673" type="curve"/>
      <point x="507" y="705"/>
      <point x="459" y="724"/>
      <point x="408" y="724" type="curve" smooth="yes"/>
      <point x="357" y="724"/>
      <point x="309" y="705"/>
      <point x="273" y="672" type="curve"/>
      <point x="171" y="665"/>
      <point x="92" y="589"/>
      <point x="88" y="488" type="curve"/>
      <point x="56" y="453"/>
      <point x="36" y="407"/>
      <point x="36" y="357" type="curve" smooth="yes"/>
      <point x="36" y="309"/>
      <point x="54" y="264"/>
      <point x="87" y="227" type="curve"/>
      <point x="91" y="128"/>
      <point x="167" y="50"/>
      <point x="273" y="41" type="curve"/>
      <point x="310" y="9"/>
      <point x="357" y="-10"/>
    </contour>
    <contour>
      <point x="228" y="102" type="curve"/>
      <point x="182" y="121"/>
      <point x="145" y="174"/>
      <point x="145" y="234" type="curve" smooth="yes"/>
      <point x="145" y="316"/>
      <point x="210" y="384"/>
      <point x="290" y="384" type="curve" smooth="yes"/>
      <point x="309" y="384"/>
      <point x="329" y="380"/>
      <point x="346" y="371" type="curve"/>
      <point x="267" y="345"/>
      <point x="208" y="272"/>
      <point x="208" y="186" type="curve" smooth="yes"/>
      <point x="208" y="156"/>
      <point x="215" y="127"/>
    </contour>
    <contour>
      <point x="409" y="36" type="curve" smooth="yes"/>
      <point x="330" y="36"/>
      <point x="267" y="103"/>
      <point x="267" y="186" type="curve" smooth="yes"/>
      <point x="267" y="244"/>
      <point x="301" y="296"/>
      <point x="350" y="320" type="curve"/>
      <point x="336" y="293"/>
      <point x="330" y="264"/>
      <point x="330" y="235" type="curve" smooth="yes"/>
      <point x="330" y="152"/>
      <point x="383" y="76"/>
      <point x="467" y="51" type="curve"/>
      <point x="449" y="41"/>
      <point x="430" y="36"/>
    </contour>
    <contour>
      <point x="102" y="308" type="curve"/>
      <point x="97" y="323"/>
      <point x="94" y="341"/>
      <point x="94" y="357" type="curve" smooth="yes"/>
      <point x="94" y="439"/>
      <point x="158" y="503"/>
      <point x="238" y="503" type="curve" smooth="yes"/>
      <point x="297" y="503"/>
      <point x="348" y="467"/>
      <point x="369" y="414" type="curve"/>
      <point x="342" y="426"/>
      <point x="315" y="431"/>
      <point x="286" y="431" type="curve" smooth="yes"/>
      <point x="207" y="431"/>
      <point x="133" y="385"/>
    </contour>
    <contour>
      <point x="533" y="88" type="curve" smooth="yes"/>
      <point x="455" y="88"/>
      <point x="388" y="153"/>
      <point x="388" y="238" type="curve" smooth="yes"/>
      <point x="388" y="253"/>
      <point x="390" y="269"/>
      <point x="396" y="283" type="curve"/>
      <point x="425" y="212"/>
      <point x="498" y="161"/>
      <point x="581" y="161" type="curve" smooth="yes"/>
      <point x="610" y="161"/>
      <point x="637" y="167"/>
      <point x="662" y="178" type="curve"/>
      <point x="641" y="125"/>
      <point x="589" y="88"/>
    </contour>
    <contour>
      <point x="422" y="431" type="curve"/>
      <point x="392" y="502"/>
      <point x="320" y="553"/>
      <point x="237" y="553" type="curve" smooth="yes"/>
      <point x="208" y="553"/>
      <point x="180" y="547"/>
      <point x="155" y="536" type="curve"/>
      <point x="176" y="589"/>
      <point x="229" y="626"/>
      <point x="285" y="626" type="curve" smooth="yes"/>
      <point x="363" y="626"/>
      <point x="430" y="561"/>
      <point x="430" y="476" type="curve" smooth="yes"/>
      <point x="430" y="461"/>
      <point x="427" y="445"/>
    </contour>
    <contour>
      <point x="580" y="211" type="curve" smooth="yes"/>
      <point x="521" y="211"/>
      <point x="470" y="247"/>
      <point x="449" y="300" type="curve"/>
      <point x="476" y="288"/>
      <point x="503" y="283"/>
      <point x="532" y="283" type="curve" smooth="yes"/>
      <point x="611" y="283"/>
      <point x="685" y="329"/>
      <point x="716" y="406" type="curve"/>
      <point x="721" y="391"/>
      <point x="724" y="373"/>
      <point x="724" y="357" type="curve" smooth="yes"/>
      <point x="724" y="275"/>
      <point x="660" y="211"/>
    </contour>
    <contour>
      <point x="467" y="394" type="curve"/>
      <point x="481" y="421"/>
      <point x="487" y="450"/>
      <point x="487" y="479" type="curve" smooth="yes"/>
      <point x="487" y="562"/>
      <point x="434" y="638"/>
      <point x="350" y="663" type="curve"/>
      <point x="368" y="673"/>
      <point x="388" y="678"/>
      <point x="409" y="678" type="curve" smooth="yes"/>
      <point x="487" y="678"/>
      <point x="550" y="611"/>
      <point x="550" y="528" type="curve" smooth="yes"/>
      <point x="550" y="470"/>
      <point x="516" y="418"/>
    </contour>
    <contour>
      <point x="528" y="330" type="curve" smooth="yes"/>
      <point x="509" y="330"/>
      <point x="489" y="334"/>
      <point x="471" y="343" type="curve"/>
      <point x="551" y="369"/>
      <point x="610" y="442"/>
      <point x="610" y="528" type="curve" smooth="yes"/>
      <point x="610" y="559"/>
      <point x="602" y="588"/>
      <point x="589" y="613" type="curve"/>
      <point x="640" y="588"/>
      <point x="672" y="537"/>
      <point x="672" y="480" type="curve" smooth="yes"/>
      <point x="672" y="398"/>
      <point x="607" y="330"/>
    </contour>
  </outline>
</glyph>
<glyph name="uni058F" format="2">
  <advance width="756"/>
  <unicode hex="058F"/>
  <note>
uni058F
</note>
  <outline>
    <contour>
      <point x="609" y="0" type="line"/>
      <point x="609" y="460" type="line" smooth="yes"/>
      <point x="609" y="620"/>
      <point x="512" y="724"/>
      <point x="332" y="724" type="curve" smooth="yes"/>
      <point x="143" y="724"/>
      <point x="50" y="611"/>
      <point x="50" y="433" type="curve"/>
      <point x="191" y="433" type="line"/>
      <point x="191" y="557"/>
      <point x="233" y="609"/>
      <point x="329" y="609" type="curve" smooth="yes"/>
      <point x="421" y="609"/>
      <point x="468" y="564"/>
      <point x="468" y="470" type="curve" smooth="yes"/>
      <point x="468" y="0" type="line"/>
    </contour>
    <contour>
      <point x="334" y="442" type="line"/>
      <point x="334" y="356" type="line"/>
      <point x="743" y="356" type="line"/>
      <point x="743" y="442" type="line"/>
    </contour>
    <contour>
      <point x="334" y="295" type="line"/>
      <point x="334" y="208" type="line"/>
      <point x="743" y="208" type="line"/>
      <point x="743" y="295" type="line"/>
    </contour>
  </outline>
</glyph>
<glyph name="hyphentwo" format="2">
  <advance width="322"/>
  <unicode hex="2010"/>
  <outline>
    <contour>
      <point x="30" y="207" type="line"/>
      <point x="292" y="207" type="line"/>
      <point x="292" y="329" type="line"/>
      <point x="30" y="329" type="line"/>
    </contour>
  </outline>
</glyph>
<glyph name="uniFB13" format="2">
  <advance width="1265"/>
  <unicode hex="FB13"/>
  <note>
uniFB13
</note>
  <outline>
    <contour>
      <point x="555" y="351" type="line" smooth="yes"/>
      <point x="555" y="424"/>
      <point x="542" y="469"/>
      <point x="492" y="525" type="curve" smooth="yes"/>
      <point x="461" y="559"/>
      <point x="438" y="586"/>
      <point x="438" y="616" type="curve" smooth="yes"/>
      <point x="438" y="636"/>
      <point x="454" y="655"/>
      <point x="479" y="655" type="curve" smooth="yes"/>
      <point x="732" y="655" type="line"/>
      <point x="732" y="760" type="line"/>
      <point x="488" y="760" type="line" smooth="yes"/>
      <point x="354" y="760"/>
      <point x="298" y="691"/>
      <point x="298" y="606" type="curve" smooth="yes"/>
      <point x="298" y="577"/>
      <point x="316" y="533"/>
      <point x="358" y="485" type="curve" smooth="yes"/>
      <point x="403" y="433"/>
      <point x="416" y="393"/>
      <point x="416" y="350" type="curve" smooth="yes"/>
      <point x="416" y="272" type="line" smooth="yes"/>
      <point x="416" y="160"/>
      <point x="377" y="101"/>
      <point x="306" y="101" type="curve" smooth="yes"/>
      <point x="252" y="101"/>
      <point x="220" y="137"/>
      <point x="220" y="204" type="curve" smooth="yes"/>
      <point x="220" y="500" type="line"/>
      <point x="81" y="500" type="line"/>
      <point x="81" y="176" type="line" smooth="yes"/>
      <point x="81" y="56"/>
      <point x="150" y="-10"/>
      <point x="268" y="-10" type="curve" smooth="yes"/>
      <point x="342" y="-10"/>
      <point x="394" y="21"/>
      <point x="421" y="68" type="curve"/>
      <point x="429" y="68" type="line"/>
      <point x="446" y="0" type="line"/>
      <point x="555" y="0" type="line"/>
    </contour>
    <contour>
      <point x="786" y="495" type="line"/>
      <point x="730" y="408"/>
      <point x="685" y="306"/>
      <point x="685" y="208" type="curve" smooth="yes"/>
      <point x="685" y="70"/>
      <point x="763" y="-10"/>
      <point x="892" y="-10" type="curve" smooth="yes"/>
      <point x="966" y="-10"/>
      <point x="1018" y="21"/>
      <point x="1045" y="68" type="curve"/>
      <point x="1053" y="68" type="line"/>
      <point x="1070" y="0" type="line"/>
      <point x="1179" y="0" type="line"/>
      <point x="1179" y="500" type="line"/>
      <point x="1040" y="500" type="line"/>
      <point x="1040" y="272" type="line" smooth="yes"/>
      <point x="1040" y="160"/>
      <point x="998" y="101"/>
      <point x="926" y="101" type="curve" smooth="yes"/>
      <point x="864" y="101"/>
      <point x="827" y="139"/>
      <point x="827" y="234" type="curve" smooth="yes"/>
      <point x="827" y="320"/>
      <point x="854" y="413"/>
      <point x="916" y="541" type="curve"/>
      <point x="916" y="557" type="line"/>
      <point x="824" y="557" type="line"/>
    </contour>
    <contour>
      <point x="916" y="557" type="line"/>
      <point x="874" y="576" type="line" smooth="yes"/>
      <point x="830" y="596"/>
      <point x="818" y="611"/>
      <point x="818" y="636" type="curve" smooth="yes"/>
      <point x="818" y="650"/>
      <point x="821" y="665"/>
      <point x="827" y="677" type="curve" smooth="yes"/>
      <point x="848" y="719" type="line"/>
      <point x="732" y="760" type="line"/>
      <point x="701" y="690" type="line" smooth="yes"/>
      <point x="690" y="665"/>
      <point x="686" y="642"/>
      <point x="686" y="611" type="curve" smooth="yes"/>
      <point x="686" y="571"/>
      <point x="711" y="533"/>
      <point x="753" y="511" type="curve" smooth="yes"/>
      <point x="789" y="492" type="line"/>
    </contour>
  </outline>
</glyph>
<glyph name="uniFB14" format="2">
  <advance width="1272"/>
  <unicode hex="FB14"/>
  <note>
uniFB14
</note>
  <outline>
    <contour>
      <point x="555" y="351" type="line" smooth="yes"/>
      <point x="555" y="424"/>
      <point x="542" y="469"/>
      <point x="492" y="525" type="curve" smooth="yes"/>
      <point x="461" y="559"/>
      <point x="438" y="586"/>
      <point x="438" y="616" type="curve" smooth="yes"/>
      <point x="438" y="636"/>
      <point x="454" y="655"/>
      <point x="479" y="655" type="curve" smooth="yes"/>
      <point x="762" y="655" type="line"/>
      <point x="762" y="760" type="line"/>
      <point x="488" y="760" type="line" smooth="yes"/>
      <point x="354" y="760"/>
      <point x="298" y="691"/>
      <point x="298" y="606" type="curve" smooth="yes"/>
      <point x="298" y="577"/>
      <point x="316" y="533"/>
      <point x="358" y="485" type="curve" smooth="yes"/>
      <point x="403" y="433"/>
      <point x="416" y="393"/>
      <point x="416" y="350" type="curve" smooth="yes"/>
      <point x="416" y="272" type="line" smooth="yes"/>
      <point x="416" y="160"/>
      <point x="377" y="101"/>
      <point x="306" y="101" type="curve" smooth="yes"/>
      <point x="252" y="101"/>
      <point x="220" y="137"/>
      <point x="220" y="204" type="curve" smooth="yes"/>
      <point x="220" y="500" type="line"/>
      <point x="81" y="500" type="line"/>
      <point x="81" y="176" type="line" smooth="yes"/>
      <point x="81" y="56"/>
      <point x="150" y="-10"/>
      <point x="268" y="-10" type="curve" smooth="yes"/>
      <point x="342" y="-10"/>
      <point x="394" y="21"/>
      <point x="421" y="68" type="curve"/>
      <point x="429" y="68" type="line"/>
      <point x="446" y="0" type="line"/>
      <point x="555" y="0" type="line"/>
    </contour>
    <contour>
      <point x="1187" y="304" type="line"/>
      <point x="1048" y="304" type="line"/>
      <point x="1048" y="272" type="line" smooth="yes"/>
      <point x="1048" y="160"/>
      <point x="1009" y="101"/>
      <point x="938" y="101" type="curve" smooth="yes"/>
      <point x="884" y="101"/>
      <point x="852" y="137"/>
      <point x="852" y="204" type="curve" smooth="yes"/>
      <point x="852" y="760" type="line"/>
      <point x="713" y="760" type="line"/>
      <point x="713" y="176" type="line" smooth="yes"/>
      <point x="713" y="56"/>
      <point x="782" y="-10"/>
      <point x="900" y="-10" type="curve" smooth="yes"/>
      <point x="974" y="-10"/>
      <point x="1026" y="21"/>
      <point x="1053" y="68" type="curve"/>
      <point x="1061" y="68" type="line"/>
      <point x="1078" y="0" type="line"/>
      <point x="1187" y="0" type="line"/>
    </contour>
    <contour>
      <point x="780" y="500" type="line"/>
      <point x="780" y="395" type="line"/>
      <point x="1203" y="395" type="line"/>
      <point x="1203" y="500" type="line"/>
    </contour>
  </outline>
</glyph>
<glyph name="uniFB15" format="2">
  <advance width="1272"/>
  <unicode hex="FB15"/>
  <note>
uniFB15
</note>
  <outline>
    <contour>
      <point x="555" y="351" type="line" smooth="yes"/>
      <point x="555" y="424"/>
      <point x="542" y="469"/>
      <point x="492" y="525" type="curve" smooth="yes"/>
      <point x="461" y="559"/>
      <point x="438" y="586"/>
      <point x="438" y="616" type="curve" smooth="yes"/>
      <point x="438" y="638"/>
      <point x="454" y="655"/>
      <point x="479" y="655" type="curve" smooth="yes"/>
      <point x="772" y="655" type="line"/>
      <point x="772" y="760" type="line"/>
      <point x="488" y="760" type="line" smooth="yes"/>
      <point x="354" y="760"/>
      <point x="298" y="691"/>
      <point x="298" y="606" type="curve" smooth="yes"/>
      <point x="298" y="577"/>
      <point x="316" y="533"/>
      <point x="358" y="485" type="curve" smooth="yes"/>
      <point x="403" y="433"/>
      <point x="416" y="393"/>
      <point x="416" y="350" type="curve" smooth="yes"/>
      <point x="416" y="272" type="line" smooth="yes"/>
      <point x="416" y="160"/>
      <point x="377" y="101"/>
      <point x="306" y="101" type="curve" smooth="yes"/>
      <point x="252" y="101"/>
      <point x="220" y="137"/>
      <point x="220" y="204" type="curve" smooth="yes"/>
      <point x="220" y="500" type="line"/>
      <point x="81" y="500" type="line"/>
      <point x="81" y="176" type="line" smooth="yes"/>
      <point x="81" y="56"/>
      <point x="150" y="-10"/>
      <point x="268" y="-10" type="curve" smooth="yes"/>
      <point x="342" y="-10"/>
      <point x="394" y="21"/>
      <point x="421" y="68" type="curve"/>
      <point x="429" y="68" type="line"/>
      <point x="446" y="0" type="line"/>
      <point x="555" y="0" type="line"/>
    </contour>
    <contour>
      <point x="855" y="760" type="line"/>
      <point x="716" y="760" type="line"/>
      <point x="716" y="-239" type="line"/>
      <point x="855" y="-239" type="line"/>
      <point x="855" y="228" type="line" smooth="yes"/>
      <point x="855" y="340"/>
      <point x="893" y="399"/>
      <point x="965" y="399" type="curve" smooth="yes"/>
      <point x="1019" y="399"/>
      <point x="1051" y="364"/>
      <point x="1051" y="296" type="curve" smooth="yes"/>
      <point x="1051" y="0" type="line"/>
      <point x="1190" y="0" type="line"/>
      <point x="1190" y="325" type="line" smooth="yes"/>
      <point x="1190" y="445"/>
      <point x="1122" y="510"/>
      <point x="1003" y="510" type="curve" smooth="yes"/>
      <point x="928" y="510"/>
      <point x="884" y="479"/>
      <point x="856" y="433" type="curve"/>
      <point x="849" y="433" type="line"/>
      <point x="853" y="463"/>
      <point x="855" y="495"/>
      <point x="855" y="526" type="curve" smooth="yes"/>
    </contour>
  </outline>
</glyph>
<glyph name="uniFB16" format="2">
  <advance width="1260"/>
  <unicode hex="FB16"/>
  <note>
uniFB16
</note>
  <outline>
    <contour>
      <point x="555" y="-134" type="line"/>
      <point x="555" y="760" type="line"/>
      <point x="416" y="760" type="line"/>
      <point x="416" y="272" type="line" smooth="yes"/>
      <point x="416" y="160"/>
      <point x="377" y="101"/>
      <point x="306" y="101" type="curve" smooth="yes"/>
      <point x="252" y="101"/>
      <point x="220" y="137"/>
      <point x="220" y="204" type="curve" smooth="yes"/>
      <point x="220" y="500" type="line"/>
      <point x="81" y="500" type="line"/>
      <point x="81" y="176" type="line" smooth="yes"/>
      <point x="81" y="56"/>
      <point x="150" y="-10"/>
      <point x="268" y="-10" type="curve" smooth="yes"/>
      <point x="342" y="-10"/>
      <point x="389" y="21"/>
      <point x="417" y="68" type="curve"/>
      <point x="424" y="68" type="line"/>
      <point x="418" y="45"/>
      <point x="416" y="23"/>
      <point x="416" y="1" type="curve" smooth="yes"/>
      <point x="416" y="-239" type="line"/>
      <point x="711" y="-239" type="line"/>
      <point x="711" y="-134" type="line"/>
    </contour>
    <contour>
      <point x="417" y="760" type="line"/>
      <point x="417" y="655" type="line"/>
      <point x="731" y="655" type="line"/>
      <point x="731" y="760" type="line"/>
    </contour>
    <contour>
      <point x="785" y="498" type="line"/>
      <point x="727" y="405"/>
      <point x="684" y="306"/>
      <point x="684" y="208" type="curve" smooth="yes"/>
      <point x="684" y="70"/>
      <point x="762" y="-10"/>
      <point x="891" y="-10" type="curve" smooth="yes"/>
      <point x="965" y="-10"/>
      <point x="1017" y="21"/>
      <point x="1044" y="68" type="curve"/>
      <point x="1052" y="68" type="line"/>
      <point x="1069" y="0" type="line"/>
      <point x="1178" y="0" type="line"/>
      <point x="1178" y="500" type="line"/>
      <point x="1039" y="500" type="line"/>
      <point x="1039" y="272" type="line" smooth="yes"/>
      <point x="1039" y="160"/>
      <point x="997" y="101"/>
      <point x="925" y="101" type="curve" smooth="yes"/>
      <point x="863" y="101"/>
      <point x="826" y="139"/>
      <point x="826" y="234" type="curve" smooth="yes"/>
      <point x="826" y="331"/>
      <point x="861" y="439"/>
      <point x="915" y="541" type="curve"/>
      <point x="915" y="557" type="line"/>
      <point x="835" y="589" type="line"/>
    </contour>
    <contour>
      <point x="915" y="557" type="line"/>
      <point x="873" y="576" type="line" smooth="yes"/>
      <point x="829" y="596"/>
      <point x="817" y="611"/>
      <point x="817" y="636" type="curve" smooth="yes"/>
      <point x="817" y="650"/>
      <point x="820" y="665"/>
      <point x="826" y="677" type="curve" smooth="yes"/>
      <point x="847" y="719" type="line"/>
      <point x="731" y="760" type="line"/>
      <point x="700" y="690" type="line" smooth="yes"/>
      <point x="689" y="665"/>
      <point x="685" y="642"/>
      <point x="685" y="611" type="curve" smooth="yes"/>
      <point x="685" y="571"/>
      <point x="710" y="533"/>
      <point x="752" y="511" type="curve" smooth="yes"/>
      <point x="788" y="492" type="line"/>
    </contour>
  </outline>
</glyph>
<glyph name="uniFB17" format="2">
  <advance width="1612"/>
  <unicode hex="FB17"/>
  <note>
uniFB17
</note>
  <outline>
    <contour>
      <point x="555" y="351" type="line" smooth="yes"/>
      <point x="555" y="424"/>
      <point x="542" y="469"/>
      <point x="492" y="525" type="curve" smooth="yes"/>
      <point x="461" y="559"/>
      <point x="438" y="586"/>
      <point x="438" y="616" type="curve" smooth="yes"/>
      <point x="438" y="638"/>
      <point x="454" y="655"/>
      <point x="479" y="655" type="curve" smooth="yes"/>
      <point x="746" y="655" type="line"/>
      <point x="746" y="760" type="line"/>
      <point x="488" y="760" type="line"/>
      <point x="354" y="760"/>
      <point x="298" y="691"/>
      <point x="298" y="606" type="curve" smooth="yes"/>
      <point x="298" y="577"/>
      <point x="316" y="533"/>
      <point x="358" y="485" type="curve" smooth="yes"/>
      <point x="403" y="433"/>
      <point x="416" y="393"/>
      <point x="416" y="350" type="curve" smooth="yes"/>
      <point x="416" y="272" type="line" smooth="yes"/>
      <point x="416" y="160"/>
      <point x="377" y="101"/>
      <point x="306" y="101" type="curve" smooth="yes"/>
      <point x="252" y="101"/>
      <point x="220" y="137"/>
      <point x="220" y="204" type="curve" smooth="yes"/>
      <point x="220" y="500" type="line"/>
      <point x="81" y="500" type="line"/>
      <point x="81" y="176" type="line" smooth="yes"/>
      <point x="81" y="56"/>
      <point x="150" y="-10"/>
      <point x="268" y="-10" type="curve" smooth="yes"/>
      <point x="342" y="-10"/>
      <point x="394" y="21"/>
      <point x="421" y="68" type="curve"/>
      <point x="429" y="68" type="line"/>
      <point x="446" y="0" type="line"/>
      <point x="555" y="0" type="line"/>
    </contour>
    <contour>
      <point x="1390" y="500" type="line"/>
      <point x="1390" y="272" type="line" smooth="yes"/>
      <point x="1390" y="160"/>
      <point x="1353" y="101"/>
      <point x="1282" y="101" type="curve" smooth="yes"/>
      <point x="1229" y="101"/>
      <point x="1197" y="137"/>
      <point x="1197" y="204" type="curve" smooth="yes"/>
      <point x="1197" y="325" type="line" smooth="yes"/>
      <point x="1197" y="445"/>
      <point x="1129" y="510"/>
      <point x="1011" y="510" type="curve" smooth="yes"/>
      <point x="937" y="510"/>
      <point x="893" y="479"/>
      <point x="866" y="433" type="curve"/>
      <point x="859" y="433" type="line"/>
      <point x="863" y="463"/>
      <point x="865" y="495"/>
      <point x="865" y="526" type="curve" smooth="yes"/>
      <point x="865" y="760" type="line"/>
      <point x="726" y="760" type="line"/>
      <point x="726" y="-239" type="line"/>
      <point x="865" y="-239" type="line"/>
      <point x="865" y="228" type="line" smooth="yes"/>
      <point x="865" y="340"/>
      <point x="902" y="399"/>
      <point x="973" y="399" type="curve" smooth="yes"/>
      <point x="1026" y="399"/>
      <point x="1058" y="364"/>
      <point x="1058" y="296" type="curve" smooth="yes"/>
      <point x="1058" y="176" type="line" smooth="yes"/>
      <point x="1058" y="56"/>
      <point x="1126" y="-10"/>
      <point x="1244" y="-10" type="curve" smooth="yes"/>
      <point x="1318" y="-10"/>
      <point x="1368" y="21"/>
      <point x="1396" y="68" type="curve"/>
      <point x="1403" y="68" type="line"/>
      <point x="1420" y="0" type="line"/>
      <point x="1530" y="0" type="line"/>
      <point x="1530" y="500" type="line"/>
    </contour>
  </outline>
</glyph>
